<?xml version="1.0" standalone="no"?>
  <!DOCTYPE svg PUBLIC "-//W3C//DTD SVG 1.1//EN" "http://www.w3.org/Graphics/SVG/1.1/DTD/svg11.dtd" >
  <svg>
  <metadata>
  Created by font-carrier
  </metadata>
  <defs>
  <font id="NotoSans" horiz-adv-x="2742" vert-adv-y="2742" >
    <font-face
      
      font-family="Noto Sans"
      
      font-weight="400"
      
      font-stretch="normal"
      
      units-per-em="2048"
      
      ascent="2189"
      
      descent="-600"
      
    />
      <missing-glyph />

      

      
      <glyph glyph-name="uni21" unicode="&#x21;" d="M334 412L217 412L166 1462L385 1462L334 412M147 111Q147 177 179.50 212.50Q212 248 274 248Q336 248 368.50 211.50Q401 175 401 111Q401 47 367.50 9Q334-29 274-29Q213-29 180 8Q147 45 147 111Z"  horiz-adv-x="551" vert-adv-y="2048"  />

      
      <glyph glyph-name="uni22" unicode="&#x22;" d="M328 1462L287 934L174 934L133 1462L328 1462M702 1462L662 934L549 934L508 1462L702 1462Z"  horiz-adv-x="836" vert-adv-y="2048"  />

      
      <glyph glyph-name="uni23" unicode="&#x23;" d="M983 893L920 565L1200 565L1200 428L893 428L809 0L664 0L748 428L455 428L375 0L231 0L309 428L51 428L51 565L336 565L401 893L127 893L127 1028L426 1028L508 1462L655 1462L573 1028L868 1028L950 1462L1092 1462L1010 1028L1270 1028L1270 893L983 893M481 565L774 565L838 893L545 893L481 565Z"  horiz-adv-x="1323" vert-adv-y="2048"  />

      
      <glyph glyph-name="uni24" unicode="&#x24;" d="M1040 449Q1040 312 938.50 222Q837 132 649 109L649-119L518-119L518 100Q404 102 299.50 119.50Q195 137 127 168L127 336Q202 301 310.50 275.50Q419 250 518 248L518 676Q313 741 228 828.50Q143 916 143 1053Q143 1185 244 1270Q345 1355 518 1374L518 1554L649 1554L649 1376Q839 1371 1010 1300L954 1159Q799 1220 649 1231L649 809Q809 755 887.50 707Q966 659 1003 597.50Q1040 536 1040 449M858 436Q858 508 811 550.50Q764 593 649 633L649 258Q858 290 858 436M326 1055Q326 982 369 937Q412 892 518 854L518 1227Q424 1211 375 1166Q326 1121 326 1055Z"  horiz-adv-x="1171" vert-adv-y="2048"  />

      
      <glyph glyph-name="uni25" unicode="&#x25;" d="M250 1026Q250 861 285.50 777.50Q321 694 399 694Q557 694 557 1026Q557 1356 399 1356Q321 1356 285.50 1273.50Q250 1191 250 1026M707 1026Q707 798 628.50 681.50Q550 565 399 565Q257 565 178.50 684.50Q100 804 100 1026Q100 1255 176.50 1369Q253 1483 399 1483Q546 1483 626.50 1364.50Q707 1246 707 1026M1145 440Q1145 273 1180.50 191Q1216 109 1294 109Q1375 109 1413.50 190.50Q1452 272 1452 440Q1452 768 1294 768Q1216 768 1180.50 686.50Q1145 605 1145 440M1602 440Q1602 213 1523 96.50Q1444-20 1294-20Q1152-20 1073.50 99.50Q995 219 995 440Q995 669 1071 783Q1147 897 1294 897Q1441 897 1521.50 778.50Q1602 660 1602 440M1335 1462L524 0L367 0L1178 1462L1335 1462Z"  horiz-adv-x="1702" vert-adv-y="2048"  />

      
      <glyph glyph-name="uni26" unicode="&#x26;" d="M422 1167Q422 1102 457.50 1037Q493 972 573 893Q697 962 748 1025Q799 1088 799 1169Q799 1245 748 1291Q697 1337 616 1337Q527 1337 474.50 1290Q422 1243 422 1167M575 139Q802 139 958 285L532 698Q394 615 345.50 547Q297 479 297 387Q297 274 374 206.50Q451 139 575 139M109 381Q109 511 176 609Q243 707 424 811Q347 898 314.50 948.50Q282 999 264 1052.50Q246 1106 246 1165Q246 1313 345 1399Q444 1485 623 1485Q788 1485 882.50 1401Q977 1317 977 1169Q977 1060 908.50 969Q840 878 684 786L1079 406Q1172 514 1223 731L1405 731Q1336 446 1196 291L1495 0L1251 0L1073 172Q959 70 837.50 25Q716-20 569-20Q354-20 231.50 85Q109 190 109 381Z"  horiz-adv-x="1499" vert-adv-y="2048"  />

      
      <glyph glyph-name="uni27" unicode="&#x27;" d="M328 1462L287 934L174 934L133 1462L328 1462Z"  horiz-adv-x="461" vert-adv-y="2048"  />

      
      <glyph glyph-name="uni28" unicode="&#x28;" d="M82 561Q82 826 159.50 1057Q237 1288 383 1462L553 1462Q409 1269 336.50 1038Q264 807 264 563Q264 323 338 94Q412-135 551-324L383-324Q236-154 159 73Q82 300 82 561Z"  horiz-adv-x="614" vert-adv-y="2048"  />

      
      <glyph glyph-name="uni29" unicode="&#x29;" d="M532 561Q532 298 454.50 71Q377-156 231-324L63-324Q202-136 276 93.50Q350 323 350 563Q350 807 277.50 1038Q205 1269 61 1462L231 1462Q378 1287 455 1055.50Q532 824 532 561Z"  horiz-adv-x="614" vert-adv-y="2048"  />

      
      <glyph glyph-name="uni2a" unicode="&#x2a;" d="M659 1556L618 1163L1012 1274L1040 1085L664 1055L907 731L731 635L557 993L399 635L217 731L457 1055L84 1085L113 1274L502 1163L459 1556L659 1556Z"  horiz-adv-x="1128" vert-adv-y="2048"  />

      
      <glyph glyph-name="uni2b" unicode="&#x2b;" d="M657 795L1065 795L1065 649L657 649L657 227L510 227L510 649L102 649L102 795L510 795L510 1219L657 1219L657 795Z"  horiz-adv-x="1171" vert-adv-y="2048"  />

      
      <glyph glyph-name="uni2c" unicode="&#x2c;" d="M379 238L393 215Q338 1 217-264L84-264Q149-14 186 238L379 238Z"  horiz-adv-x="549" vert-adv-y="2048"  />

      
      <glyph glyph-name="uni2d" unicode="&#x2d;" d="M82 469L82 629L578 629L578 469L82 469Z"  horiz-adv-x="659" vert-adv-y="2048"  />

      
      <glyph glyph-name="uni2e" unicode="&#x2e;" d="M147 111Q147 177 179.50 212.50Q212 248 272 248Q333 248 367 212.50Q401 177 401 111Q401 46 367 8.50Q333-29 272-29Q213-29 180 8Q147 45 147 111Z"  horiz-adv-x="549" vert-adv-y="2048"  />

      
      <glyph glyph-name="uni2f" unicode="&#x2f;" d="M741 1462L197 0L20 0L565 1462L741 1462Z"  horiz-adv-x="762" vert-adv-y="2048"  />

      
      <glyph glyph-name="uni30" unicode="&#x30;" d="M1071 733Q1071 352 950.50 166Q830-20 584-20Q346-20 223 171.50Q100 363 100 733Q100 1115 218.50 1300Q337 1485 584 1485Q822 1485 946.50 1293Q1071 1101 1071 733M281 733Q281 415 353.50 274Q426 133 584 133Q744 133 816.50 277.50Q889 422 889 733Q889 1041 816.50 1186Q744 1331 584 1331Q424 1331 352.50 1189Q281 1047 281 733Z"  horiz-adv-x="1171" vert-adv-y="2048"  />

      
      <glyph glyph-name="uni31" unicode="&#x31;" d="M727 0L551 0L551 1022Q551 1158 559 1274Q531 1244 499 1218Q397 1133 276 1034L182 1155L578 1462L727 1462L727 0Z"  horiz-adv-x="1171" vert-adv-y="2048"  />

      
      <glyph glyph-name="uni32" unicode="&#x32;" d="M1065 0L98 0L98 150L481 537Q654 712 710 787Q766 862 793.50 932Q821 1002 821 1083Q821 1199 752 1264Q683 1329 563 1329Q473 1329 392.50 1299Q312 1269 211 1190L115 1311Q320 1483 563 1483Q767 1483 886.50 1378.50Q1006 1274 1006 1094Q1006 998 971 908.50Q936 819 866 726.50Q796 634 631 473L326 172L326 164L1065 164L1065 0Z"  horiz-adv-x="1171" vert-adv-y="2048"  />

      
      <glyph glyph-name="uni33" unicode="&#x33;" d="M1010 1120Q1010 980 931.50 890Q853 800 707 770L707 762Q882 740 968.50 650Q1055 560 1055 416Q1055 207 910 93.50Q765-20 494-20Q378-20 280.50-3Q183 14 92 59L92 227Q185 181 291 156Q397 131 496 131Q866 131 866 420Q866 678 457 678L315 678L315 831L459 831Q631 831 728 904.50Q825 978 825 1108Q825 1213 754.50 1272Q684 1331 559 1331Q462 1331 379.50 1304.50Q297 1278 190 1208L100 1331Q190 1402 307.50 1442.50Q425 1483 557 1483Q771 1483 890.50 1385.50Q1010 1288 1010 1120Z"  horiz-adv-x="1171" vert-adv-y="2048"  />

      
      <glyph glyph-name="uni34" unicode="&#x34;" d="M1130 332L918 332L918 0L743 0L743 332L43 332L43 485L731 1470L918 1470L918 494L1130 494L1130 332M743 494L743 954Q743 1091 754 1278L745 1278Q734 1252 706.50 1200Q679 1148 657 1118L219 494L743 494Z"  horiz-adv-x="1171" vert-adv-y="2048"  />

      
      <glyph glyph-name="uni35" unicode="&#x35;" d="M563 897Q792 897 923.50 782Q1055 667 1055 467Q1055 239 910 109.50Q765-20 508-20Q263-20 129 59L129 229Q203 185 307 159Q411 133 510 133Q682 133 776 215Q870 297 870 449Q870 745 504 745Q386 745 254 715L164 772L219 1462L952 1462L952 1298L373 1298L338 874Q453 897 563 897Z"  horiz-adv-x="1171" vert-adv-y="2048"  />

      
      <glyph glyph-name="uni36" unicode="&#x36;" d="M113 625Q113 1483 782 1483Q898 1483 963 1464L963 1311Q887 1335 786 1335Q553 1335 429.50 1193Q306 1051 293 743L305 743Q415 915 651 915Q849 915 962 795Q1075 675 1075 471Q1075 244 950 112Q825-20 610-20Q460-20 347.50 56Q235 132 174 278.50Q113 425 113 625M608 131Q747 131 822 220Q897 309 897 471Q897 617 824 695.50Q751 774 614 774Q527 774 454.50 738Q382 702 338.50 638Q295 574 295 506Q295 406 335 318.50Q375 231 446 181Q517 131 608 131Z"  horiz-adv-x="1171" vert-adv-y="2048"  />

      
      <glyph glyph-name="uni37" unicode="&#x37;" d="M279 0L879 1298L90 1298L90 1462L1071 1462L1071 1323L477 0L279 0Z"  horiz-adv-x="1171" vert-adv-y="2048"  />

      
      <glyph glyph-name="uni38" unicode="&#x38;" d="M584 1483Q784 1483 903 1390Q1022 1297 1022 1133Q1022 1023 955.50 936Q889 849 743 774Q920 688 994.50 594.50Q1069 501 1069 379Q1069 197 940 88.50Q811-20 590-20Q356-20 228 82Q100 184 100 373Q100 623 403 764Q267 842 207 932Q147 1022 147 1135Q147 1294 266.50 1388.50Q386 1483 584 1483M276 371Q276 255 358.50 189Q441 123 586 123Q729 123 811 190.50Q893 258 893 377Q893 473 815 548Q737 623 553 690Q408 628 342 552Q276 476 276 371M582 1337Q464 1337 394 1281Q324 1225 324 1126Q324 1063 351 1015Q378 967 429 929Q480 891 592 844Q729 901 786.50 969Q844 1037 844 1126Q844 1226 773 1281.50Q702 1337 582 1337Z"  horiz-adv-x="1171" vert-adv-y="2048"  />

      
      <glyph glyph-name="uni39" unicode="&#x39;" d="M1065 838Q1065-20 393-20Q277-20 209 0L209 154Q286 127 389 127Q552 127 658 192.50Q764 258 819.50 383.50Q875 509 883 717L870 717Q758 547 522 547Q329 547 215.50 664.50Q102 782 102 989Q102 1215 229 1349Q356 1483 569 1483Q719 1483 831.50 1406.50Q944 1330 1004.50 1183.50Q1065 1037 1065 838M569 1331Q433 1331 357 1242Q281 1153 281 991Q281 845 352.50 767.50Q424 690 561 690Q651 690 725 726.50Q799 763 841 825Q883 887 883 956Q883 1056 843.50 1143Q804 1230 733 1280.50Q662 1331 569 1331Z"  horiz-adv-x="1171" vert-adv-y="2048"  />

      
      <glyph glyph-name="uni3a" unicode="&#x3a;" d="M147 111Q147 177 179.50 212.50Q212 248 272 248Q333 248 367 212.50Q401 177 401 111Q401 46 367 8.50Q333-29 272-29Q213-29 180 8Q147 45 147 111M147 987Q147 1053 178.50 1089.50Q210 1126 272 1126Q335 1126 368 1090Q401 1054 401 987Q401 923 367 885.50Q333 848 272 848Q213 848 180 885Q147 922 147 987Z"  horiz-adv-x="549" vert-adv-y="2048"  />

      
      <glyph glyph-name="uni3b" unicode="&#x3b;" d="M360 238L375 215Q323 16 199-264L63-264Q90-160 122.50-7Q155 146 168 238L360 238M143 987Q143 1053 174.50 1089.50Q206 1126 268 1126Q397 1126 397 987Q397 921 363 884.50Q329 848 268 848Q209 848 176 885Q143 922 143 987Z"  horiz-adv-x="549" vert-adv-y="2048"  />

      
      <glyph glyph-name="uni3c" unicode="&#x3c;" d="M1067 238L102 662L102 764L1067 1245L1067 1085L295 721L1067 397L1067 238Z"  horiz-adv-x="1171" vert-adv-y="2048"  />

      
      <glyph glyph-name="uni3d" unicode="&#x3d;" d="M115 852L115 997L1053 997L1053 852L115 852M115 444L115 590L1053 590L1053 444L115 444Z"  horiz-adv-x="1171" vert-adv-y="2048"  />

      
      <glyph glyph-name="uni3e" unicode="&#x3e;" d="M102 397L874 719L102 1085L102 1245L1067 764L1067 662L102 238L102 397Z"  horiz-adv-x="1171" vert-adv-y="2048"  />

      
      <glyph glyph-name="uni3f" unicode="&#x3f;" d="M287 412L287 467Q287 586 325 660.50Q363 735 459 815Q568 907 602 947Q636 987 650 1027Q664 1067 664 1120Q664 1219 600 1272Q536 1325 416 1325Q336 1325 259.50 1305Q183 1285 88 1239L25 1382Q215 1483 428 1483Q618 1483 727 1388.50Q836 1294 836 1124Q836 1050 816 993Q796 936 755.50 885Q715 834 594 733Q495 648 462.50 592.50Q430 537 430 446L430 412L287 412M240 111Q240 248 367 248Q425 248 458.50 213.50Q492 179 492 111Q492 44 458 7.50Q424-29 367-29Q311-29 275.50 4Q240 37 240 111Z"  horiz-adv-x="889" vert-adv-y="2048"  />

      
      <glyph glyph-name="uni40" unicode="&#x40;" d="M1722 731Q1722 591 1677.50 473Q1633 355 1553 289Q1473 223 1368 223Q1283 223 1225 272.50Q1167 322 1153 401L1143 401Q1104 318 1029 270.50Q954 223 854 223Q702 223 615 324.50Q528 426 528 604Q528 737 581.50 842.50Q635 948 735 1006.50Q835 1065 963 1065Q1032 1065 1120.50 1052.50Q1209 1040 1276 1016L1253 548L1253 526Q1253 350 1380 350Q1469 350 1524 455Q1579 560 1579 733Q1579 912 1505.50 1047Q1432 1182 1296.50 1254.50Q1161 1327 987 1327Q767 1327 603.50 1235.50Q440 1144 353 974.50Q266 805 266 580Q266 278 425 115.50Q584-47 887-47Q1099-47 1327 41L1327-98Q1127-182 887-182Q523-182 321 17.50Q119 217 119 573Q119 832 226.50 1035.50Q334 1239 532 1350.50Q730 1462 987 1462Q1202 1462 1370.50 1371Q1539 1280 1630.50 1113Q1722 946 1722 731M688 600Q688 350 881 350Q1086 350 1104 659L1116 915Q1043 936 965 936Q836 936 762 847Q688 758 688 600Z"  horiz-adv-x="1841" vert-adv-y="2048"  />

      
      <glyph glyph-name="uni41" unicode="&#x41;" d="M1116 0L940 453L360 453L186 0L0 0L571 1468L737 1468L1307 0L1116 0M885 616L721 1059L651 1278Q621 1158 588 1059L422 616L885 616Z"  horiz-adv-x="1309" vert-adv-y="2048"  />

      
      <glyph glyph-name="uni42" unicode="&#x42;" d="M199 1462L616 1462Q910 1462 1040.50 1374.50Q1171 1287 1171 1100Q1171 970 1100 885.50Q1029 801 893 776L893 766Q1062 737 1141.50 649Q1221 561 1221 416Q1221 220 1087 110Q953 0 713 0L199 0L199 1462M383 840L653 840Q825 840 903 895Q981 950 981 1079Q981 1199 895.50 1252Q810 1305 625 1305L383 1305L383 840M383 686L383 156L678 156Q854 156 939 224Q1024 292 1024 430Q1024 561 934 623.50Q844 686 664 686L383 686Z"  horiz-adv-x="1331" vert-adv-y="2048"  />

      
      <glyph glyph-name="uni43" unicode="&#x43;" d="M825 1321Q589 1321 454 1163Q319 1005 319 731Q319 448 450 294.50Q581 141 823 141Q979 141 1174 199L1174 39Q1081 5 995-7.50Q909-20 797-20Q474-20 299.50 176.50Q125 373 125 733Q125 959 208.50 1129Q292 1299 451.50 1391Q611 1483 827 1483Q1059 1483 1231 1397L1157 1241Q982 1321 825 1321Z"  horiz-adv-x="1294" vert-adv-y="2048"  />

      
      <glyph glyph-name="uni44" unicode="&#x44;" d="M1370 745Q1370 383 1172.50 191.50Q975 0 606 0L199 0L199 1462L649 1462Q990 1462 1180 1274.50Q1370 1087 1370 745M1176 739Q1176 1018 1038.50 1161.50Q901 1305 623 1305L383 1305L383 158L582 158Q1176 158 1176 739Z"  horiz-adv-x="1495" vert-adv-y="2048"  />

      
      <glyph glyph-name="uni45" unicode="&#x45;" d="M1016 0L199 0L199 1462L1016 1462L1016 1300L383 1300L383 844L979 844L979 684L383 684L383 162L1016 162L1016 0Z"  horiz-adv-x="1139" vert-adv-y="2048"  />

      
      <glyph glyph-name="uni46" unicode="&#x46;" d="M383 0L199 0L199 1462L1016 1462L1016 1300L383 1300L383 782L977 782L977 621L383 621L383 0Z"  horiz-adv-x="1063" vert-adv-y="2048"  />

      
      <glyph glyph-name="uni47" unicode="&#x47;" d="M834 772L1339 772L1339 55Q1223 18 1103-1Q983-20 825-20Q491-20 308 178Q125 376 125 731Q125 960 216 1131Q307 1302 478.50 1392.50Q650 1483 883 1483Q1117 1483 1319 1397L1249 1237Q1056 1321 872 1321Q611 1321 464 1163Q317 1005 317 731Q317 441 458 290Q599 139 868 139Q1015 139 1155 174L1155 608L834 608L834 772Z"  horiz-adv-x="1491" vert-adv-y="2048"  />

      
      <glyph glyph-name="uni48" unicode="&#x48;" d="M1317 0L1133 0L1133 682L383 682L383 0L199 0L199 1462L383 1462L383 844L1133 844L1133 1462L1317 1462L1317 0Z"  horiz-adv-x="1518" vert-adv-y="2048"  />

      
      <glyph glyph-name="uni49" unicode="&#x49;" d="M610 0L82 0L82 106L254 145L254 1315L82 1356L82 1462L610 1462L610 1356L438 1315L438 145L610 106L610 0Z"  horiz-adv-x="694" vert-adv-y="2048"  />

      
      <glyph glyph-name="uni4a" unicode="&#x4a;" d="M-8-389Q-102-389-160-362L-160-207Q-89-227-12-227Q88-227 138-166.50Q188-106 188 8L188 1462L373 1462L373 23Q373-175 274.50-282Q176-389-8-389Z"  horiz-adv-x="559" vert-adv-y="2048"  />

      
      <glyph glyph-name="uni4b" unicode="&#x4b;" d="M1268 0L1051 0L532 698L383 567L383 0L199 0L199 1462L383 1462L383 741L509 880L1030 1462L1245 1462L666 825L1268 0Z"  horiz-adv-x="1268" vert-adv-y="2048"  />

      
      <glyph glyph-name="uni4c" unicode="&#x4c;" d="M199 0L199 1462L383 1462L383 164L1022 164L1022 0L199 0Z"  horiz-adv-x="1073" vert-adv-y="2048"  />

      
      <glyph glyph-name="uni4d" unicode="&#x4d;" d="M844 0L362 1282L354 1282Q369 1122 369 887L369 0L199 0L199 1462L471 1462L922 264L930 264L1389 1462L1659 1462L1659 0L1477 0L1477 899Q1477 1049 1491 1280L1483 1280L995 0L844 0Z"  horiz-adv-x="1858" vert-adv-y="2048"  />

      
      <glyph glyph-name="uni4e" unicode="&#x4e;" d="M1358 0L1143 0L360 1214L352 1214L357 1133Q369 951 369 817L369 0L199 0L199 1462L412 1462L457 1391L937 649L1192 252L1200 252Q1198 276 1192 423.50Q1186 571 1186 637L1186 1462L1358 1462L1358 0Z"  horiz-adv-x="1556" vert-adv-y="2048"  />

      
      <glyph glyph-name="uni4f" unicode="&#x4f;" d="M1475 733Q1475 382 1297.50 181Q1120-20 801-20Q478-20 301.50 177.50Q125 375 125 735Q125 1092 300.50 1288.50Q476 1485 803 1485Q1121 1485 1298 1285.50Q1475 1086 1475 733M319 733Q319 443 442 291Q565 139 801 139Q1036 139 1158 289Q1280 439 1280 733Q1280 1026 1159 1174.50Q1038 1323 803 1323Q565 1323 442 1172.50Q319 1022 319 733Z"  horiz-adv-x="1599" vert-adv-y="2048"  />

      
      <glyph glyph-name="uni50" unicode="&#x50;" d="M1135 1032Q1135 808 982 688.50Q829 569 551 569L383 569L383 0L199 0L199 1462L586 1462Q1135 1462 1135 1032M383 727L530 727Q748 727 846 797.50Q944 868 944 1024Q944 1165 853 1235Q762 1305 569 1305L383 1305L383 727Z"  horiz-adv-x="1239" vert-adv-y="2048"  />

      
      <glyph glyph-name="uni51" unicode="&#x51;" d="M1475 733Q1475 456 1364 271Q1253 86 1049 16L1399-348L1135-348L852-18L801-20Q478-20 301.50 177.50Q125 375 125 735Q125 1092 300.50 1288.50Q476 1485 803 1485Q1121 1485 1298 1285.50Q1475 1086 1475 733M319 733Q319 443 442 291Q565 139 801 139Q1036 139 1158 289Q1280 439 1280 733Q1280 1026 1159 1174.50Q1038 1323 803 1323Q565 1323 442 1172.50Q319 1022 319 733Z"  horiz-adv-x="1599" vert-adv-y="2048"  />

      
      <glyph glyph-name="uni52" unicode="&#x52;" d="M383 760L602 760Q780 760 862 830Q944 900 944 1038Q944 1176 861 1239.50Q778 1303 592 1303L383 1303L383 760M383 604L383 0L199 0L199 1462L602 1462Q874 1462 1004.50 1358.50Q1135 1255 1135 1047Q1135 756 842 655L1243 0L1028 0L674 604L383 604Z"  horiz-adv-x="1274" vert-adv-y="2048"  />

      
      <glyph glyph-name="uni53" unicode="&#x53;" d="M1028 391Q1028 200 890 90Q752-20 506-20Q246-20 104 49L104 225Q197 185 307.50 162Q418 139 514 139Q678 139 761 202Q844 265 844 375Q844 448 814 495Q784 542 713.50 583Q643 624 500 676Q297 750 210 850.50Q123 951 123 1110Q123 1281 251.50 1382Q380 1483 590 1483Q809 1483 993 1401L936 1243Q748 1321 586 1321Q456 1321 382.50 1265Q309 1209 309 1108Q309 1036 337.50 988.50Q366 941 429.50 902Q493 863 629 813Q792 753 872 696.50Q952 640 990 566.50Q1028 493 1028 391Z"  horiz-adv-x="1124" vert-adv-y="2048"  />

      
      <glyph glyph-name="uni54" unicode="&#x54;" d="M662 0L477 0L477 1300L20 1300L20 1462L1116 1462L1116 1300L662 1300L662 0Z"  horiz-adv-x="1139" vert-adv-y="2048"  />

      
      <glyph glyph-name="uni55" unicode="&#x55;" d="M1311 1462L1311 516Q1311 266 1160 123Q1009-20 741-20Q476-20 330 124.50Q184 269 184 520L184 1462L369 1462L369 514Q369 335 464.50 237Q560 139 752 139Q933 139 1030.50 236Q1128 333 1128 516L1128 1462L1311 1462Z"  horiz-adv-x="1497" vert-adv-y="2048"  />

      
      <glyph glyph-name="uni56" unicode="&#x56;" d="M0 1462L193 1462L522 524Q585 346 614 205Q639 331 707 528L1034 1462L1229 1462L707 0L522 0L0 1462Z"  horiz-adv-x="1229" vert-adv-y="2048"  />

      
      <glyph glyph-name="uni57" unicode="&#x57;" d="M1489 0L1303 0L1018 958Q955 1172 944 1247Q928 1132 874 952L598 0L412 0L25 1462L217 1462L444 569Q490 394 514 221Q536 385 592 580L850 1462L1040 1462L1309 573Q1361 400 1389 221Q1405 359 1460 571L1686 1462L1878 1462L1489 0Z"  horiz-adv-x="1905" vert-adv-y="2048"  />

      
      <glyph glyph-name="uni58" unicode="&#x58;" d="M1192 0L983 0L596 635L203 0L8 0L494 762L39 1462L244 1462L602 889L963 1462L1157 1462L705 766L1192 0Z"  horiz-adv-x="1200" vert-adv-y="2048"  />

      
      <glyph glyph-name="uni59" unicode="&#x59;" d="M580 743L961 1462L1159 1462L672 567L672 0L487 0L487 559L0 1462L201 1462L580 743Z"  horiz-adv-x="1159" vert-adv-y="2048"  />

      
      <glyph glyph-name="uni5a" unicode="&#x5a;" d="M1092 0L78 0L78 139L848 1298L102 1298L102 1462L1071 1462L1071 1323L301 164L1092 164L1092 0Z"  horiz-adv-x="1171" vert-adv-y="2048"  />

      
      <glyph glyph-name="uni5b" unicode="&#x5b;" d="M623-324L164-324L164 1462L623 1462L623 1315L340 1315L340-176L623-176L623-324Z"  horiz-adv-x="674" vert-adv-y="2048"  />

      
      <glyph glyph-name="uni5c" unicode="&#x5c;" d="M197 1462L743 0L565 0L20 1462L197 1462Z"  horiz-adv-x="762" vert-adv-y="2048"  />

      
      <glyph glyph-name="uni5d" unicode="&#x5d;" d="M51-176L334-176L334 1315L51 1315L51 1462L510 1462L510-324L51-324L51-176Z"  horiz-adv-x="674" vert-adv-y="2048"  />

      
      <glyph glyph-name="uni5e" unicode="&#x5e;" d="M78 547L512 1473L614 1473L1094 547L934 547L565 1282L238 547L78 547Z"  horiz-adv-x="1171" vert-adv-y="2048"  />

      
      <glyph glyph-name="uni5f" unicode="&#x5f;" d="M913-315L-4-315L-4-184L913-184L913-315Z"  horiz-adv-x="909" vert-adv-y="2048"  />

      
      <glyph glyph-name="uni60" unicode="&#x60;" d="M799 1241L678 1241Q603 1301 513.50 1396.50Q424 1492 387 1548L387 1569L602 1569Q634 1503 693 1411.50Q752 1320 799 1266L799 1241Z"  horiz-adv-x="1188" vert-adv-y="2048"  />

      
      <glyph glyph-name="uni61" unicode="&#x61;" d="M852 0L817 156L809 156Q727 53 645.50 16.50Q564-20 440-20Q278-20 186 65Q94 150 94 305Q94 639 621 655L807 662L807 727Q807 852 753 911.50Q699 971 580 971Q493 971 415.50 945Q338 919 270 887L215 1022Q298 1066 396 1091Q494 1116 590 1116Q789 1116 886 1028Q983 940 983 748L983 0L852 0M481 125Q632 125 718.50 206.50Q805 288 805 438L805 537L643 530Q454 523 367.50 470Q281 417 281 303Q281 217 333.50 171Q386 125 481 125Z"  horiz-adv-x="1149" vert-adv-y="2048"  />

      
      <glyph glyph-name="uni62" unicode="&#x62;" d="M694 1116Q911 1116 1029 966.50Q1147 817 1147 549Q1147 277 1027 128.50Q907-20 694-20Q583-20 496 20Q409 60 354 139L340 139Q309 19 303 0L174 0L174 1556L354 1556L354 1178Q354 1065 344 952L354 952Q465 1116 694 1116M664 967Q498 967 426 873Q354 779 354 555L354 547Q354 322 427.50 225.50Q501 129 668 129Q816 129 888.50 237.50Q961 346 961 551Q961 759 888 863Q815 967 664 967Z"  horiz-adv-x="1260" vert-adv-y="2048"  />

      
      <glyph glyph-name="uni63" unicode="&#x63;" d="M614-20Q377-20 245 125.50Q113 271 113 543Q113 819 246.50 968.50Q380 1118 627 1118Q707 1118 785.50 1101.50Q864 1085 915 1059L860 909Q721 961 623 961Q457 961 378 856.50Q299 752 299 545Q299 346 378 240.50Q457 135 612 135Q757 135 897 199L897 39Q783-20 614-20Z"  horiz-adv-x="983" vert-adv-y="2048"  />

      
      <glyph glyph-name="uni64" unicode="&#x64;" d="M563-20Q349-20 231 128Q113 276 113 547Q113 816 231.50 967Q350 1118 565 1118Q786 1118 905 956L918 956Q915 976 910 1036.50Q905 1097 905 1118L905 1556L1085 1556L1085 0L940 0L913 147L905 147Q790-20 563-20M592 129Q756 129 831.50 218.50Q907 308 907 512L907 545Q907 774 830.50 871.50Q754 969 590 969Q451 969 375 858.50Q299 748 299 543Q299 339 374.50 234Q450 129 592 129Z"  horiz-adv-x="1260" vert-adv-y="2048"  />

      
      <glyph glyph-name="uni65" unicode="&#x65;" d="M641-20Q394-20 253.50 129.50Q113 279 113 541Q113 805 244 961.50Q375 1118 598 1118Q805 1118 928 984.50Q1051 851 1051 623L1051 514L299 514Q304 327 394 230Q484 133 649 133Q737 133 816 148.50Q895 164 1001 209L1001 51Q910 12 830-4Q750-20 641-20M596 971Q467 971 392 888Q317 805 303 657L862 657Q860 811 791 891Q722 971 596 971Z"  horiz-adv-x="1155" vert-adv-y="2048"  />

      
      <glyph glyph-name="uni66" unicode="&#x66;" d="M680 958L403 958L403 0L223 0L223 958L31 958L31 1042L223 1104L223 1167Q223 1367 310.50 1467Q398 1567 580 1567Q685 1567 793 1530L745 1389Q652 1419 582 1419Q491 1419 447 1359Q403 1299 403 1169L403 1098L680 1098L680 958Z"  horiz-adv-x="705" vert-adv-y="2048"  />

      
      <glyph glyph-name="uni67" unicode="&#x67;" d="M592 127Q758 127 833.50 216.50Q909 306 909 504L909 547Q909 767 833 867Q757 967 588 967Q450 967 374.50 857.50Q299 748 299 545Q299 341 372.50 234Q446 127 592 127M907 10L913 145L905 145Q794-20 565-20Q352-20 232.50 128.50Q113 277 113 547Q113 812 233.50 965Q354 1118 563 1118Q786 1118 907 952L918 952L942 1098L1085 1098L1085-18Q1085-254 965.50-373Q846-492 594-492Q354-492 199-422L199-256Q359-342 604-342Q744-342 825.50-260Q907-178 907-33L907 10Z"  horiz-adv-x="1260" vert-adv-y="2048"  />

      
      <glyph glyph-name="uni68" unicode="&#x68;" d="M922 0L922 702Q922 836 862.50 901.50Q803 967 676 967Q509 967 431.50 874Q354 781 354 567L354 0L174 0L174 1556L354 1556L354 1100Q354 1010 344 946L356 946Q405 1026 495 1071Q585 1116 698 1116Q898 1116 999 1020.50Q1100 925 1100 715L1100 0L922 0Z"  horiz-adv-x="1266" vert-adv-y="2048"  />

      
      <glyph glyph-name="uni69" unicode="&#x69;" d="M354 0L174 0L174 1098L354 1098L354 0M160 1395Q160 1455 190.50 1482Q221 1509 266 1509Q308 1509 339.50 1482Q371 1455 371 1395Q371 1336 339.50 1308Q308 1280 266 1280Q221 1280 190.50 1308Q160 1336 160 1395Z"  horiz-adv-x="528" vert-adv-y="2048"  />

      
      <glyph glyph-name="uni6a" unicode="&#x6a;" d="M45-492Q-49-492-113-467L-113-322Q-44-342 23-342Q101-342 137.50-299.50Q174-257 174-170L174 1098L354 1098L354-164Q354-328 275.50-410Q197-492 45-492M160 1395Q160 1455 190.50 1482Q221 1509 266 1509Q308 1509 339.50 1482Q371 1455 371 1395Q371 1336 339.50 1308Q308 1280 266 1280Q221 1280 190.50 1308Q160 1336 160 1395Z"  horiz-adv-x="528" vert-adv-y="2048"  />

      
      <glyph glyph-name="uni6b" unicode="&#x6b;" d="M352 565L413 643L483 727L834 1098L1044 1098L600 629L1075 0L858 0L477 512L352 403L352 0L174 0L174 1556L352 1556L352 743L344 565L352 565Z"  horiz-adv-x="1094" vert-adv-y="2048"  />

      
      <glyph glyph-name="uni6c" unicode="&#x6c;" d="M354 0L174 0L174 1556L354 1556L354 0Z"  horiz-adv-x="528" vert-adv-y="2048"  />

      
      <glyph glyph-name="uni6d" unicode="&#x6d;" d="M1571 0L1571 707Q1571 967 1348 967Q1195 967 1123 878Q1051 789 1051 606L1051 0L872 0L872 707Q872 837 817.50 902Q763 967 647 967Q495 967 424.50 874Q354 781 354 569L354 0L174 0L174 1098L319 1098L346 948L356 948Q403 1028 488.50 1073Q574 1118 680 1118Q938 1118 1016 934L1026 934Q1079 1022 1170.50 1070Q1262 1118 1378 1118Q1564 1118 1656.50 1022Q1749 926 1749 715L1749 0L1571 0Z"  horiz-adv-x="1915" vert-adv-y="2048"  />

      
      <glyph glyph-name="uni6e" unicode="&#x6e;" d="M922 0L922 702Q922 836 862.50 901.50Q803 967 676 967Q507 967 430.50 873.50Q354 780 354 569L354 0L174 0L174 1098L319 1098L346 948L356 948Q407 1029 499 1073.50Q591 1118 702 1118Q904 1118 1002 1020Q1100 922 1100 715L1100 0L922 0Z"  horiz-adv-x="1266" vert-adv-y="2048"  />

      
      <glyph glyph-name="uni6f" unicode="&#x6f;" d="M1128 551Q1128 282 992 131Q856-20 616-20Q467-20 352 49.50Q237 119 175 249Q113 379 113 551Q113 819 247 968.50Q381 1118 623 1118Q855 1118 991.50 965.50Q1128 813 1128 551M299 551Q299 344 380.50 236.50Q462 129 621 129Q778 129 860 236.50Q942 344 942 551Q942 758 859.50 862.50Q777 967 618 967Q299 967 299 551Z"  horiz-adv-x="1239" vert-adv-y="2048"  />

      
      <glyph glyph-name="uni70" unicode="&#x70;" d="M694-20Q473-20 354 139L342 139L346 98Q354 20 354-41L354-492L174-492L174 1098L322 1098L346 948L354 948Q418 1038 502 1078Q586 1118 696 1118Q910 1118 1028.50 969.50Q1147 821 1147 551Q1147 282 1028 131Q909-20 694-20M664 967Q501 967 428.50 875Q356 783 354 586L354 551Q354 328 428 228.50Q502 129 668 129Q806 129 883.50 241Q961 353 961 553Q961 754 883.50 860.50Q806 967 664 967Z"  horiz-adv-x="1260" vert-adv-y="2048"  />

      
      <glyph glyph-name="uni71" unicode="&#x71;" d="M594 129Q755 129 829 217Q903 305 907 508L907 545Q907 772 831 870.50Q755 969 590 969Q449 969 374 858Q299 747 299 543Q299 342 373.50 235.50Q448 129 594 129M559-20Q347-20 230 130Q113 280 113 547Q113 815 232.50 966.50Q352 1118 565 1118Q790 1118 907 948L915 948L942 1098L1085 1098L1085-492L905-492L905-23Q905 87 915 147L903 147Q788-20 559-20Z"  horiz-adv-x="1260" vert-adv-y="2048"  />

      
      <glyph glyph-name="uni72" unicode="&#x72;" d="M686 1118Q759 1118 815 1106L793 940Q732 954 674 954Q587 954 512.50 906Q438 858 396 773.50Q354 689 354 586L354 0L174 0L174 1098L322 1098L342 897L350 897Q413 1006 499 1062Q585 1118 686 1118Z"  horiz-adv-x="846" vert-adv-y="2048"  />

      
      <glyph glyph-name="uni73" unicode="&#x73;" d="M889 303Q889 149 774 64.50Q659-20 451-20Q234-20 106 49L106 213Q287 125 455 125Q591 125 653 169Q715 213 715 287Q715 352 655.50 397Q596 442 444 500Q289 560 226 602.50Q163 645 133.50 698Q104 751 104 827Q104 962 214 1040Q324 1118 516 1118Q703 1118 866 1044L805 901Q638 971 504 971Q392 971 334 935.50Q276 900 276 838Q276 778 326 738.50Q376 699 559 629Q696 578 761.50 534Q827 490 858 435Q889 380 889 303Z"  horiz-adv-x="981" vert-adv-y="2048"  />

      
      <glyph glyph-name="uni74" unicode="&#x74;" d="M541 127Q576 127 623 134Q670 141 694 150L694 12Q669 1 616.50-9.50Q564-20 510-20Q188-20 188 319L188 958L33 958L33 1044L190 1116L262 1350L369 1350L369 1098L686 1098L686 958L369 958L369 324Q369 229 414.50 178Q460 127 541 127Z"  horiz-adv-x="739" vert-adv-y="2048"  />

      
      <glyph glyph-name="uni75" unicode="&#x75;" d="M344 1098L344 391Q344 258 403.50 193.50Q463 129 588 129Q757 129 834 223Q911 317 911 526L911 1098L1092 1098L1092 0L944 0L918 145L909 145Q860 66 770 23Q680-20 561-20Q363-20 262.50 75Q162 170 162 379L162 1098L344 1098Z"  horiz-adv-x="1266" vert-adv-y="2048"  />

      
      <glyph glyph-name="uni76" unicode="&#x76;" d="M416 0L0 1098L193 1098L426 451Q495 256 514 160L522 160Q525 173 529.50 189.50Q534 206 540 225.50Q546 245 614 451L848 1098L1040 1098L623 0L416 0Z"  horiz-adv-x="1040" vert-adv-y="2048"  />

      
      <glyph glyph-name="uni77" unicode="&#x77;" d="M1071 0L883 618Q857 695 807 909L799 909Q757 714 725 616L528 0L324 0L23 1098L209 1098Q313 693 367.50 482Q422 271 432 184L440 184L454 246Q485 389 514 479L709 1098L905 1098L1094 479Q1104 444 1115.50 404.50Q1127 365 1137 326.50Q1147 288 1155 251.50Q1163 215 1167 186L1176 186Q1185 262 1249 512L1403 1098L1587 1098L1282 0L1071 0Z"  horiz-adv-x="1610" vert-adv-y="2048"  />

      
      <glyph glyph-name="uni78" unicode="&#x78;" d="M434 561L55 1098L260 1098L543 684L823 1098L1026 1098L647 561L1047 0L842 0L543 438L240 0L37 0L434 561Z"  horiz-adv-x="1083" vert-adv-y="2048"  />

      
      <glyph glyph-name="uni79" unicode="&#x79;" d="M2 1098L195 1098L432 473Q507 269 524 174L532 174Q541 211 573 312.50Q605 414 627 475L850 1098L1044 1098L571-152Q502-334 407-413Q312-492 172-492Q97-492 23-475L23-332Q73-344 143-344Q229-344 289-296.50Q349-249 387-150L444-4L2 1098Z"  horiz-adv-x="1044" vert-adv-y="2048"  />

      
      <glyph glyph-name="uni7a" unicode="&#x7a;" d="M883 0L80 0L80 119L670 958L115 958L115 1098L868 1098L868 963L287 139L883 139L883 0Z"  horiz-adv-x="963" vert-adv-y="2048"  />

      
      <glyph glyph-name="uni7b" unicode="&#x7b;" d="M57 645Q189 647 248 693.50Q307 740 307 836L307 1139Q307 1294 414.50 1378Q522 1462 713 1462L713 1315Q597 1311 541 1264Q485 1217 485 1122L485 827Q485 617 262 578L262 565Q377 545 431 483Q485 421 485 315L485 14Q485-86 544-130Q603-174 713-176L713-324Q513-322 410-238Q307-154 307 2L307 303Q307 407 242.50 451.50Q178 496 57 496L57 645Z"  horiz-adv-x="778" vert-adv-y="2048"  />

      
      <glyph glyph-name="uni7c" unicode="&#x7c;" d="M489 1556L639 1556L639-494L489-494L489 1556Z"  horiz-adv-x="1128" vert-adv-y="2048"  />

      
      <glyph glyph-name="uni7d" unicode="&#x7d;" d="M721 496Q599 494 535 451Q471 408 471 305L471 0Q471-154 364.50-239Q258-324 66-324L66-176Q293-172 293 16L293 313Q293 524 516 563L516 575Q293 614 293 825L293 1124Q293 1224 234 1268.50Q175 1313 66 1315L66 1462Q264 1460 367.50 1377.50Q471 1295 471 1137L471 838Q471 733 535 689Q599 645 721 645L721 496Z"  horiz-adv-x="778" vert-adv-y="2048"  />

      
      <glyph glyph-name="uni7e" unicode="&#x7e;" d="M336 709Q283 709 219.50 675.50Q156 642 102 588L102 748Q202 856 348 856Q418 856 477.50 840.50Q537 825 618 791Q691 760 738 747.50Q785 735 831 735Q885 735 949 767Q1013 799 1067 856L1067 698Q965 588 821 588Q749 588 686 604.50Q623 621 551 653Q478 685 431 697Q384 709 336 709Z"  horiz-adv-x="1171" vert-adv-y="2048"  />

      
      <glyph glyph-name="unia1" unicode="&#xa1;" d="M213 676L332 676L383-373L162-373L213 676M401 979Q401 912 368.50 877Q336 842 274 842Q212 842 179.50 876.50Q147 911 147 979Q147 1045 181 1081.50Q215 1118 274 1118Q333 1118 367 1082Q401 1046 401 979Z"  horiz-adv-x="551" vert-adv-y="2048"  />

      
      <glyph glyph-name="unia2" unicode="&#xa2;" d="M975 240Q862 183 721 178L721-20L584-20L584 184Q380 215 283 353.50Q186 492 186 741Q186 1249 584 1311L584 1483L723 1483L723 1319Q875 1313 993 1260L940 1110Q797 1163 696 1163Q529 1163 450 1059Q371 955 371 743Q371 530 451 433Q531 336 688 336Q777 336 844.50 353.50Q912 371 975 397L975 240Z"  horiz-adv-x="1171" vert-adv-y="2048"  />

      
      <glyph glyph-name="unia3" unicode="&#xa3;" d="M684 1481Q874 1481 1047 1397L983 1253Q816 1331 688 1331Q571 1331 510 1270.50Q449 1210 449 1075L449 791L866 791L866 655L449 655L449 442Q449 346 416.50 277.50Q384 209 309 164L1096 164L1096 0L66 0L66 152Q268 199 268 440L268 655L72 655L72 791L268 791L268 1094Q268 1275 380.50 1378Q493 1481 684 1481Z"  horiz-adv-x="1171" vert-adv-y="2048"  />

      
      <glyph glyph-name="unia4" unicode="&#xa4;" d="M184 723Q184 840 256 948L121 1087L221 1184L356 1053Q456 1124 586 1124Q707 1124 811 1053L948 1184L1047 1087L915 950Q987 839 987 723Q987 593 915 494L1044 358L948 262L811 393Q708 324 586 324Q454 324 356 395L221 264L123 360L256 496Q184 604 184 723M322 723Q322 612 398.50 535.50Q475 459 586 459Q697 459 774.50 535Q852 611 852 723Q852 837 774.50 914Q697 991 586 991Q476 991 399 913.50Q322 836 322 723Z"  horiz-adv-x="1171" vert-adv-y="2048"  />

      
      <glyph glyph-name="unia5" unicode="&#xa5;" d="M584 748L950 1462L1139 1462L727 694L981 694L981 563L672 563L672 395L981 395L981 264L672 264L672 0L496 0L496 264L186 264L186 395L496 395L496 563L186 563L186 694L436 694L29 1462L219 1462L584 748Z"  horiz-adv-x="1171" vert-adv-y="2048"  />

      
      <glyph glyph-name="unia6" unicode="&#xa6;" d="M489 1556L639 1556L639 776L489 776L489 1556M489 287L639 287L639-494L489-494L489 287Z"  horiz-adv-x="1128" vert-adv-y="2048"  />

      
      <glyph glyph-name="unia7" unicode="&#xa7;" d="M137 809Q137 896 180 963.50Q223 1031 299 1067Q225 1107 184 1163Q143 1219 143 1303Q143 1426 247 1496.50Q351 1567 547 1567Q639 1567 714.50 1553Q790 1539 897 1497L842 1360Q745 1399 677 1413Q609 1427 535 1427Q420 1427 365.50 1397.50Q311 1368 311 1307Q311 1251 369 1209Q427 1167 582 1112Q764 1045 839.50 968.50Q915 892 915 784Q915 604 762 512Q913 432 913 287Q913 145 795 67.50Q677-10 467-10Q257-10 121 57L121 211Q208 172 303 149.50Q398 127 475 127Q603 127 672 164Q741 201 741 272Q741 333 688 372.50Q635 412 477 473Q280 546 208.50 621Q137 696 137 809M291 829Q291 778 318 740.50Q345 703 405.50 668Q466 633 629 571Q760 647 760 758Q760 839 690 893.50Q620 948 438 1006Q373 988 332 938.50Q291 889 291 829Z"  horiz-adv-x="1051" vert-adv-y="2048"  />

      
      <glyph glyph-name="unia8" unicode="&#xa8;" d="M305 1395Q305 1448 333 1471.50Q361 1495 401 1495Q440 1495 469 1471.50Q498 1448 498 1395Q498 1342 469 1317Q440 1292 401 1292Q361 1292 333 1317Q305 1342 305 1395M690 1395Q690 1448 718 1471.50Q746 1495 784 1495Q823 1495 852 1471.50Q881 1448 881 1395Q881 1342 852 1317Q823 1292 784 1292Q746 1292 718 1317Q690 1342 690 1395Z"  horiz-adv-x="1188" vert-adv-y="2048"  />

      
      <glyph glyph-name="unia9" unicode="&#xa9;" d="M893 1055Q774 1055 706.50 969.50Q639 884 639 731Q639 574 697.50 490Q756 406 891 406Q986 406 1106 453L1106 322Q1046 295 997 283.50Q948 272 883 272Q690 272 584.50 392Q479 512 479 731Q479 940 590 1064Q701 1188 891 1188Q1021 1188 1143 1126L1083 1001Q977 1055 893 1055M100 731Q100 931 200 1106Q300 1281 475 1382Q650 1483 852 1483Q1052 1483 1227 1383Q1402 1283 1503 1108Q1604 933 1604 731Q1604 534 1507 361Q1410 188 1235 84Q1060-20 852-20Q645-20 470 83.50Q295 187 197.50 360Q100 533 100 731M209 731Q209 559 295 410Q381 261 530.50 174.50Q680 88 852 88Q1024 88 1173 174Q1322 260 1408.50 409.50Q1495 559 1495 731Q1495 903 1409 1052Q1323 1201 1173.50 1287.50Q1024 1374 852 1374Q680 1374 531 1288Q382 1202 295.50 1052.50Q209 903 209 731Z"  horiz-adv-x="1704" vert-adv-y="2048"  />

      
      <glyph glyph-name="uniaa" unicode="&#xaa;" d="M535 797L510 883Q416 784 276 784Q179 784 122.50 834Q66 884 66 987Q66 1090 145 1143Q224 1196 389 1202L504 1206L504 1251Q504 1312 465 1342Q426 1372 358 1372Q258 1372 152 1319Q126 1381 106 1419Q228 1479 362 1479Q496 1479 563.50 1424Q631 1369 631 1247L631 797L535 797M197 987Q197 889 307 889Q504 889 504 1067L504 1114L406 1110Q295 1106 246 1077.50Q197 1049 197 987Z"  horiz-adv-x="731" vert-adv-y="2048"  />

      
      <glyph glyph-name="uniab" unicode="&#xab;" d="M82 553L426 965L555 891L268 541L555 190L426 115L82 526L82 553M487 553L836 965L963 891L676 541L963 190L836 115L487 526L487 553Z"  horiz-adv-x="1042" vert-adv-y="2048"  />

      
      <glyph glyph-name="uniac" unicode="&#xac;" d="M1065 795L1065 262L920 262L920 649L102 649L102 795L1065 795Z"  horiz-adv-x="1171" vert-adv-y="2048"  />

      
      <glyph glyph-name="uniad" unicode="&#xad;" d="M82 469L82 629L578 629L578 469L82 469Z"  horiz-adv-x="659" vert-adv-y="2048"  />

      
      <glyph glyph-name="uniae" unicode="&#xae;" d="M727 764L829 764Q910 764 954.50 804Q999 844 999 909Q999 982 958 1014.50Q917 1047 827 1047L727 1047L727 764M1157 913Q1157 830 1114 769.50Q1071 709 997 680L1235 283L1059 283L854 637L727 637L727 283L571 283L571 1178L834 1178Q1002 1178 1079.50 1112.50Q1157 1047 1157 913M100 731Q100 931 200 1106Q300 1281 475 1382Q650 1483 852 1483Q1052 1483 1227 1383Q1402 1283 1503 1108Q1604 933 1604 731Q1604 534 1507 361Q1410 188 1235 84Q1060-20 852-20Q645-20 470 83.50Q295 187 197.50 360Q100 533 100 731M209 731Q209 559 295 410Q381 261 530.50 174.50Q680 88 852 88Q1024 88 1173 174Q1322 260 1408.50 409.50Q1495 559 1495 731Q1495 903 1409 1052Q1323 1201 1173.50 1287.50Q1024 1374 852 1374Q680 1374 531 1288Q382 1202 295.50 1052.50Q209 903 209 731Z"  horiz-adv-x="1704" vert-adv-y="2048"  />

      
      <glyph glyph-name="uniaf" unicode="&#xaf;" d="M1030 1556L-6 1556L-6 1692L1030 1692L1030 1556Z"  horiz-adv-x="1024" vert-adv-y="2048"  />

      
      <glyph glyph-name="unib0" unicode="&#xb0;" d="M123 1167Q123 1302 215 1392.50Q307 1483 438 1483Q571 1483 662.50 1391Q754 1299 754 1167Q754 1036 662 945Q570 854 438 854Q308 854 215.50 943.50Q123 1033 123 1167M246 1167Q246 1088 303.50 1031.50Q361 975 440 975Q521 975 576 1032Q631 1089 631 1167Q631 1247 576 1303.50Q521 1360 440 1360Q360 1360 303 1304Q246 1248 246 1167Z"  horiz-adv-x="877" vert-adv-y="2048"  />

      
      <glyph glyph-name="unib1" unicode="&#xb1;" d="M657 801L1065 801L1065 655L657 655L657 233L510 233L510 655L102 655L102 801L510 801L510 1225L657 1225L657 801M102 0L102 145L1065 145L1065 0L102 0Z"  horiz-adv-x="1171" vert-adv-y="2048"  />

      
      <glyph glyph-name="unib2" unicode="&#xb2;" d="M627 586L49 586L49 696L285 926Q412 1049 447.50 1105.50Q483 1162 483 1231Q483 1296 445.50 1329Q408 1362 346 1362Q284 1362 234 1338Q184 1314 131 1274L59 1368Q192 1481 348 1481Q480 1481 554.50 1415.50Q629 1350 629 1239Q629 1193 616.50 1153.50Q604 1114 578 1073.50Q552 1033 510.50 987Q469 941 227 713L627 713L627 586Z"  horiz-adv-x="717" vert-adv-y="2048"  />

      
      <glyph glyph-name="unib3" unicode="&#xb3;" d="M631 1255Q631 1104 479 1047Q657 1003 657 838Q657 711 565 640Q473 569 303 569Q151 569 35 627L35 756Q177 686 305 686Q510 686 510 842Q510 983 285 983L168 983L168 1096L285 1096Q388 1096 435.50 1135Q483 1174 483 1239Q483 1298 444.50 1331Q406 1364 340 1364Q236 1364 113 1286L39 1380Q113 1435 185 1458Q257 1481 338 1481Q474 1481 552.50 1420.50Q631 1360 631 1255Z"  horiz-adv-x="717" vert-adv-y="2048"  />

      
      <glyph glyph-name="unib4" unicode="&#xb4;" d="M387 1266Q425 1314 483.50 1402.50Q542 1491 582 1569L799 1569L799 1548Q755 1484 662 1387Q569 1290 506 1241L387 1241L387 1266Z"  horiz-adv-x="1188" vert-adv-y="2048"  />

      
      <glyph glyph-name="unib5" unicode="&#xb5;" d="M354 389Q354 129 600 129Q769 129 845.50 222.50Q922 316 922 526L922 1098L1102 1098L1102 0L956 0L928 147L918 147Q809-20 588-20Q442-20 352 72L344 72Q354-2 354-172L354-492L174-492L174 1098L354 1098L354 389Z"  horiz-adv-x="1276" vert-adv-y="2048"  />

      
      <glyph glyph-name="unib6" unicode="&#xb6;" d="M1124-260L1006-260L1006 1442L797 1442L797-260L678-260L678 559Q616 541 532 541Q316 541 214.50 666Q113 791 113 1042Q113 1302 222 1429Q331 1556 563 1556L1124 1556L1124-260Z"  horiz-adv-x="1341" vert-adv-y="2048"  />

      
      <glyph glyph-name="unib7" unicode="&#xb7;" d="M147 723Q147 788 179.50 825Q212 862 272 862Q334 862 367.50 824.50Q401 787 401 723Q401 659 367 621.50Q333 584 272 584Q213 584 180 621Q147 658 147 723Z"  horiz-adv-x="549" vert-adv-y="2048"  />

      
      <glyph glyph-name="unib8" unicode="&#xb8;" d="M434-285Q434-384 358.50-438Q283-492 131-492Q66-492 29-481L29-369Q65-379 137-379Q212-379 250.50-359.50Q289-340 289-289Q289-200 102-176L190 0L309 0L256-109Q434-147 434-285Z"  horiz-adv-x="461" vert-adv-y="2048"  />

      
      <glyph glyph-name="unib9" unicode="&#xb9;" d="M342 1462L492 1462L492 586L346 586L346 1151Q346 1218 354 1333Q323 1305 300 1286Q277 1267 147 1174L76 1274L342 1462Z"  horiz-adv-x="717" vert-adv-y="2048"  />

      
      <glyph glyph-name="uniba" unicode="&#xba;" d="M707 1133Q707 970 620.50 877Q534 784 383 784Q238 784 152 876.50Q66 969 66 1133Q66 1298 150 1388.50Q234 1479 387 1479Q536 1479 621.50 1388Q707 1297 707 1133M195 1133Q195 1012 239 952.50Q283 893 385 893Q485 893 530 952.50Q575 1012 575 1133Q575 1254 530 1312Q485 1370 385 1370Q285 1370 240 1312Q195 1254 195 1133Z"  horiz-adv-x="770" vert-adv-y="2048"  />

      
      <glyph glyph-name="unibb" unicode="&#xbb;" d="M961 526L612 115L485 190L772 541L485 891L612 965L961 553L961 526M553 526L207 115L80 190L367 541L80 891L207 965L553 553L553 526Z"  horiz-adv-x="1042" vert-adv-y="2048"  />

      
      <glyph glyph-name="unibc" unicode="&#xbc;" d="M1304 1462L411 0L258 0L1151 1462L1304 1462M337 1462L487 1462L487 586L341 586L341 1151Q341 1218 349 1333Q318 1305 295 1286Q272 1267 142 1174L71 1274L337 1462M1507 197L1382 197L1382 1L1229 1L1229 197L829 197L829 304L1233 883L1382 883L1382 320L1507 320L1507 197M1229 320L1229 511Q1229 618 1235 718Q1227 700 1137 560L973 320L1229 320Z"  horiz-adv-x="1618" vert-adv-y="2048"  />

      
      <glyph glyph-name="unibd" unicode="&#xbd;" d="M1243 1462L350 0L197 0L1090 1462L1243 1462M312 1462L462 1462L462 586L316 586L316 1151Q316 1218 324 1333Q293 1305 270 1286Q247 1267 117 1174L46 1274L312 1462M1489 1L911 1L911 111L1147 341Q1274 464 1309.50 520.50Q1345 577 1345 646Q1345 711 1307.50 744Q1270 777 1208 777Q1146 777 1096 753Q1046 729 993 689L921 783Q1054 896 1210 896Q1342 896 1416.50 830.50Q1491 765 1491 654Q1491 608 1478.50 568.50Q1466 529 1440 488.50Q1414 448 1372.50 402Q1331 356 1089 128L1489 128L1489 1Z"  horiz-adv-x="1618" vert-adv-y="2048"  />

      
      <glyph glyph-name="unibe" unicode="&#xbe;" d="M1394 1462L501 0L348 0L1241 1462L1394 1462M1581 197L1456 197L1456 1L1303 1L1303 197L903 197L903 304L1307 883L1456 883L1456 320L1581 320L1581 197M1303 320L1303 511Q1303 618 1309 718Q1301 700 1211 560L1047 320L1303 320M628 1255Q628 1104 476 1047Q654 1003 654 838Q654 711 562 640Q470 569 300 569Q148 569 32 627L32 756Q174 686 302 686Q507 686 507 842Q507 983 282 983L165 983L165 1096L282 1096Q385 1096 432.50 1135Q480 1174 480 1239Q480 1298 441.50 1331Q403 1364 337 1364Q233 1364 110 1286L36 1380Q110 1435 182 1458Q254 1481 335 1481Q471 1481 549.50 1420.50Q628 1360 628 1255Z"  horiz-adv-x="1618" vert-adv-y="2048"  />

      
      <glyph glyph-name="unibf" unicode="&#xbf;" d="M602 676L602 623Q602 506 565 431Q528 356 428 272Q295 161 260 106Q225 51 225-33Q225-129 288.50-183.50Q352-238 471-238Q630-238 801-150L864-295Q666-393 465-393Q271-393 161-299.50Q51-206 51-37Q51 36 71 92.50Q91 149 132 200Q173 251 293 354Q396 444 426.50 499.50Q457 555 457 643L457 676L602 676M649 979Q649 842 522 842Q460 842 428.50 877.50Q397 913 397 979Q397 1052 433.50 1085Q470 1118 522 1118Q576 1118 612.50 1085Q649 1052 649 979Z"  horiz-adv-x="889" vert-adv-y="2048"  />

      
      <glyph glyph-name="unic0" unicode="&#xc0;" d="M1116 0L940 453L360 453L186 0L0 0L571 1468L737 1468L1307 0L1116 0M885 616L721 1059L651 1278Q621 1158 588 1059L422 616L885 616M745 1579L624 1579Q549 1639 459.50 1734.50Q370 1830 333 1886L333 1907L548 1907Q580 1841 639 1749.50Q698 1658 745 1604L745 1579Z"  horiz-adv-x="1309" vert-adv-y="2048"  />

      
      <glyph glyph-name="unic1" unicode="&#xc1;" d="M1116 0L940 453L360 453L186 0L0 0L571 1468L737 1468L1307 0L1116 0M885 616L721 1059L651 1278Q621 1158 588 1059L422 616L885 616M526 1604Q564 1652 622.50 1740.50Q681 1829 721 1907L938 1907L938 1886Q894 1822 801 1725Q708 1628 645 1579L526 1579L526 1604Z"  horiz-adv-x="1309" vert-adv-y="2048"  />

      
      <glyph glyph-name="unic2" unicode="&#xc2;" d="M1116 0L940 453L360 453L186 0L0 0L571 1468L737 1468L1307 0L1116 0M885 616L721 1059L651 1278Q621 1158 588 1059L422 616L885 616M299 1602Q424 1736 475.50 1800Q527 1864 551 1907L735 1907Q787 1806 991 1602L991 1579L864 1579Q774 1632 641 1763Q510 1635 422 1579L299 1579L299 1602Z"  horiz-adv-x="1309" vert-adv-y="2048"  />

      
      <glyph glyph-name="unic3" unicode="&#xc3;" d="M1116 0L940 453L360 453L186 0L0 0L571 1468L737 1468L1307 0L1116 0M885 616L721 1059L651 1278Q621 1158 588 1059L422 616L885 616M798 1581Q755 1581 714 1599.50Q673 1618 633.50 1639.50Q594 1661 557.50 1679.50Q521 1698 487 1698Q438 1698 413 1668.50Q388 1639 374 1579L270 1579Q282 1701 340 1771Q398 1841 495 1841Q540 1841 582.50 1822.50Q625 1804 664 1782.50Q703 1761 739 1742.50Q775 1724 807 1724Q855 1724 879.50 1753.50Q904 1783 919 1843L1022 1843Q1010 1724 952 1652.50Q894 1581 798 1581Z"  horiz-adv-x="1309" vert-adv-y="2048"  />

      
      <glyph glyph-name="unic4" unicode="&#xc4;" d="M1116 0L940 453L360 453L186 0L0 0L571 1468L737 1468L1307 0L1116 0M885 616L721 1059L651 1278Q621 1158 588 1059L422 616L885 616M362 1733Q362 1786 390 1809.50Q418 1833 458 1833Q497 1833 526 1809.50Q555 1786 555 1733Q555 1680 526 1655Q497 1630 458 1630Q418 1630 390 1655Q362 1680 362 1733M747 1733Q747 1786 775 1809.50Q803 1833 841 1833Q880 1833 909 1809.50Q938 1786 938 1733Q938 1680 909 1655Q880 1630 841 1630Q803 1630 775 1655Q747 1680 747 1733Z"  horiz-adv-x="1309" vert-adv-y="2048"  />

      
      <glyph glyph-name="unic5" unicode="&#xc5;" d="M877 1585Q877 1516 847 1466.50Q817 1417 766 1393L1307 0L1116 0L940 453L360 453L186 0L0 0L539 1386Q486 1411 456 1461Q426 1511 426 1583Q426 1681 486 1739.50Q546 1798 649 1798Q751 1798 814 1739Q877 1680 877 1585M885 616L721 1059L651 1278Q621 1158 588 1059L422 616L885 616M764 1583Q764 1637 731.50 1667.50Q699 1698 649 1698Q600 1698 567.50 1667.50Q535 1637 535 1583Q535 1529 564 1498.50Q593 1468 649 1468Q700 1468 732 1498.50Q764 1529 764 1583Z"  horiz-adv-x="1309" vert-adv-y="2048"  />

      
      <glyph glyph-name="unic6" unicode="&#xc6;" d="M1681 0L920 0L920 453L408 453L188 0L-2 0L692 1462L1681 1462L1681 1300L1104 1300L1104 844L1642 844L1642 684L1104 684L1104 162L1681 162L1681 0M479 616L920 616L920 1298L801 1298L479 616Z"  horiz-adv-x="1804" vert-adv-y="2048"  />

      
      <glyph glyph-name="unic7" unicode="&#xc7;" d="M825 1321Q589 1321 454 1163Q319 1005 319 731Q319 448 450 294.50Q581 141 823 141Q979 141 1174 199L1174 39Q1081 5 995-7.50Q909-20 797-20Q474-20 299.50 176.50Q125 373 125 733Q125 959 208.50 1129Q292 1299 451.50 1391Q611 1483 827 1483Q1059 1483 1231 1397L1157 1241Q982 1321 825 1321M950-285Q950-384 874.50-438Q799-492 647-492Q582-492 545-481L545-369Q581-379 653-379Q728-379 766.50-359.50Q805-340 805-289Q805-200 618-176L706 0L825 0L772-109Q950-147 950-285Z"  horiz-adv-x="1294" vert-adv-y="2048"  />

      
      <glyph glyph-name="unic8" unicode="&#xc8;" d="M1016 0L199 0L199 1462L1016 1462L1016 1300L383 1300L383 844L979 844L979 684L383 684L383 162L1016 162L1016 0M726 1579L605 1579Q530 1639 440.50 1734.50Q351 1830 314 1886L314 1907L529 1907Q561 1841 620 1749.50Q679 1658 726 1604L726 1579Z"  horiz-adv-x="1139" vert-adv-y="2048"  />

      
      <glyph glyph-name="unic9" unicode="&#xc9;" d="M1016 0L199 0L199 1462L1016 1462L1016 1300L383 1300L383 844L979 844L979 684L383 684L383 162L1016 162L1016 0M453 1604Q491 1652 549.50 1740.50Q608 1829 648 1907L865 1907L865 1886Q821 1822 728 1725Q635 1628 572 1579L453 1579L453 1604Z"  horiz-adv-x="1139" vert-adv-y="2048"  />

      
      <glyph glyph-name="unica" unicode="&#xca;" d="M1016 0L199 0L199 1462L1016 1462L1016 1300L383 1300L383 844L979 844L979 684L383 684L383 162L1016 162L1016 0M255 1602Q380 1736 431.50 1800Q483 1864 507 1907L691 1907Q743 1806 947 1602L947 1579L820 1579Q730 1632 597 1763Q466 1635 378 1579L255 1579L255 1602Z"  horiz-adv-x="1139" vert-adv-y="2048"  />

      
      <glyph glyph-name="unicb" unicode="&#xcb;" d="M1016 0L199 0L199 1462L1016 1462L1016 1300L383 1300L383 844L979 844L979 684L383 684L383 162L1016 162L1016 0M319 1733Q319 1786 347 1809.50Q375 1833 415 1833Q454 1833 483 1809.50Q512 1786 512 1733Q512 1680 483 1655Q454 1630 415 1630Q375 1630 347 1655Q319 1680 319 1733M704 1733Q704 1786 732 1809.50Q760 1833 798 1833Q837 1833 866 1809.50Q895 1786 895 1733Q895 1680 866 1655Q837 1630 798 1630Q760 1630 732 1655Q704 1680 704 1733Z"  horiz-adv-x="1139" vert-adv-y="2048"  />

      
      <glyph glyph-name="unicc" unicode="&#xcc;" d="M610 0L82 0L82 106L254 145L254 1315L82 1356L82 1462L610 1462L610 1356L438 1315L438 145L610 106L610 0M472 1579L351 1579Q276 1639 186.50 1734.50Q97 1830 60 1886L60 1907L275 1907Q307 1841 366 1749.50Q425 1658 472 1604L472 1579Z"  horiz-adv-x="694" vert-adv-y="2048"  />

      
      <glyph glyph-name="unicd" unicode="&#xcd;" d="M610 0L82 0L82 106L254 145L254 1315L82 1356L82 1462L610 1462L610 1356L438 1315L438 145L610 106L610 0M236 1604Q274 1652 332.50 1740.50Q391 1829 431 1907L648 1907L648 1886Q604 1822 511 1725Q418 1628 355 1579L236 1579L236 1604Z"  horiz-adv-x="694" vert-adv-y="2048"  />

      
      <glyph glyph-name="unice" unicode="&#xce;" d="M610 0L82 0L82 106L254 145L254 1315L82 1356L82 1462L610 1462L610 1356L438 1315L438 145L610 106L610 0M-3 1602Q122 1736 173.50 1800Q225 1864 249 1907L433 1907Q485 1806 689 1602L689 1579L562 1579Q472 1632 339 1763Q208 1635 120 1579L-3 1579L-3 1602Z"  horiz-adv-x="694" vert-adv-y="2048"  />

      
      <glyph glyph-name="unicf" unicode="&#xcf;" d="M610 0L82 0L82 106L254 145L254 1315L82 1356L82 1462L610 1462L610 1356L438 1315L438 145L610 106L610 0M60 1733Q60 1786 88 1809.50Q116 1833 156 1833Q195 1833 224 1809.50Q253 1786 253 1733Q253 1680 224 1655Q195 1630 156 1630Q116 1630 88 1655Q60 1680 60 1733M445 1733Q445 1786 473 1809.50Q501 1833 539 1833Q578 1833 607 1809.50Q636 1786 636 1733Q636 1680 607 1655Q578 1630 539 1630Q501 1630 473 1655Q445 1680 445 1733Z"  horiz-adv-x="694" vert-adv-y="2048"  />

      
      <glyph glyph-name="unid0" unicode="&#xd0;" d="M1370 745Q1370 386 1173.50 193Q977 0 604 0L213 0L213 643L61 643L61 803L213 803L213 1462L649 1462Q990 1462 1180 1273.50Q1370 1085 1370 745M1176 739Q1176 1019 1037 1162Q898 1305 623 1305L397 1305L397 803L762 803L762 643L397 643L397 158L582 158Q1176 158 1176 739Z"  horiz-adv-x="1495" vert-adv-y="2048"  />

      
      <glyph glyph-name="unid1" unicode="&#xd1;" d="M1358 0L1143 0L360 1214L352 1214L357 1133Q369 951 369 817L369 0L199 0L199 1462L412 1462L457 1391L937 649L1192 252L1200 252Q1198 276 1192 423.50Q1186 571 1186 637L1186 1462L1358 1462L1358 0M940 1581Q897 1581 856 1599.50Q815 1618 775.50 1639.50Q736 1661 699.50 1679.50Q663 1698 629 1698Q580 1698 555 1668.50Q530 1639 516 1579L412 1579Q424 1701 482 1771Q540 1841 637 1841Q682 1841 724.50 1822.50Q767 1804 806 1782.50Q845 1761 881 1742.50Q917 1724 949 1724Q997 1724 1021.50 1753.50Q1046 1783 1061 1843L1164 1843Q1152 1724 1094 1652.50Q1036 1581 940 1581Z"  horiz-adv-x="1556" vert-adv-y="2048"  />

      
      <glyph glyph-name="unid2" unicode="&#xd2;" d="M1475 733Q1475 382 1297.50 181Q1120-20 801-20Q478-20 301.50 177.50Q125 375 125 735Q125 1092 300.50 1288.50Q476 1485 803 1485Q1121 1485 1298 1285.50Q1475 1086 1475 733M319 733Q319 443 442 291Q565 139 801 139Q1036 139 1158 289Q1280 439 1280 733Q1280 1026 1159 1174.50Q1038 1323 803 1323Q565 1323 442 1172.50Q319 1022 319 733M918 1579L797 1579Q722 1639 632.50 1734.50Q543 1830 506 1886L506 1907L721 1907Q753 1841 812 1749.50Q871 1658 918 1604L918 1579Z"  horiz-adv-x="1599" vert-adv-y="2048"  />

      
      <glyph glyph-name="unid3" unicode="&#xd3;" d="M1475 733Q1475 382 1297.50 181Q1120-20 801-20Q478-20 301.50 177.50Q125 375 125 735Q125 1092 300.50 1288.50Q476 1485 803 1485Q1121 1485 1298 1285.50Q1475 1086 1475 733M319 733Q319 443 442 291Q565 139 801 139Q1036 139 1158 289Q1280 439 1280 733Q1280 1026 1159 1174.50Q1038 1323 803 1323Q565 1323 442 1172.50Q319 1022 319 733M657 1604Q695 1652 753.50 1740.50Q812 1829 852 1907L1069 1907L1069 1886Q1025 1822 932 1725Q839 1628 776 1579L657 1579L657 1604Z"  horiz-adv-x="1599" vert-adv-y="2048"  />

      
      <glyph glyph-name="unid4" unicode="&#xd4;" d="M1475 733Q1475 382 1297.50 181Q1120-20 801-20Q478-20 301.50 177.50Q125 375 125 735Q125 1092 300.50 1288.50Q476 1485 803 1485Q1121 1485 1298 1285.50Q1475 1086 1475 733M319 733Q319 443 442 291Q565 139 801 139Q1036 139 1158 289Q1280 439 1280 733Q1280 1026 1159 1174.50Q1038 1323 803 1323Q565 1323 442 1172.50Q319 1022 319 733M440 1602Q565 1736 616.50 1800Q668 1864 692 1907L876 1907Q928 1806 1132 1602L1132 1579L1005 1579Q915 1632 782 1763Q651 1635 563 1579L440 1579L440 1602Z"  horiz-adv-x="1599" vert-adv-y="2048"  />

      
      <glyph glyph-name="unid5" unicode="&#xd5;" d="M1475 733Q1475 382 1297.50 181Q1120-20 801-20Q478-20 301.50 177.50Q125 375 125 735Q125 1092 300.50 1288.50Q476 1485 803 1485Q1121 1485 1298 1285.50Q1475 1086 1475 733M319 733Q319 443 442 291Q565 139 801 139Q1036 139 1158 289Q1280 439 1280 733Q1280 1026 1159 1174.50Q1038 1323 803 1323Q565 1323 442 1172.50Q319 1022 319 733M944 1581Q901 1581 860 1599.50Q819 1618 779.50 1639.50Q740 1661 703.50 1679.50Q667 1698 633 1698Q584 1698 559 1668.50Q534 1639 520 1579L416 1579Q428 1701 486 1771Q544 1841 641 1841Q686 1841 728.50 1822.50Q771 1804 810 1782.50Q849 1761 885 1742.50Q921 1724 953 1724Q1001 1724 1025.50 1753.50Q1050 1783 1065 1843L1168 1843Q1156 1724 1098 1652.50Q1040 1581 944 1581Z"  horiz-adv-x="1599" vert-adv-y="2048"  />

      
      <glyph glyph-name="unid6" unicode="&#xd6;" d="M1475 733Q1475 382 1297.50 181Q1120-20 801-20Q478-20 301.50 177.50Q125 375 125 735Q125 1092 300.50 1288.50Q476 1485 803 1485Q1121 1485 1298 1285.50Q1475 1086 1475 733M319 733Q319 443 442 291Q565 139 801 139Q1036 139 1158 289Q1280 439 1280 733Q1280 1026 1159 1174.50Q1038 1323 803 1323Q565 1323 442 1172.50Q319 1022 319 733M516 1733Q516 1786 544 1809.50Q572 1833 612 1833Q651 1833 680 1809.50Q709 1786 709 1733Q709 1680 680 1655Q651 1630 612 1630Q572 1630 544 1655Q516 1680 516 1733M901 1733Q901 1786 929 1809.50Q957 1833 995 1833Q1034 1833 1063 1809.50Q1092 1786 1092 1733Q1092 1680 1063 1655Q1034 1630 995 1630Q957 1630 929 1655Q901 1680 901 1733Z"  horiz-adv-x="1599" vert-adv-y="2048"  />

      
      <glyph glyph-name="unid7" unicode="&#xd7;" d="M584 825L934 1176L1036 1071L688 723Q976 431 1034 375L932 270Q701 501 582 616L240 270L133 375Q264 504 479 723L131 1069L238 1176L584 825Z"  horiz-adv-x="1171" vert-adv-y="2048"  />

      
      <glyph glyph-name="unid8" unicode="&#xd8;" d="M1475 733Q1475 382 1297.50 181Q1120-20 801-20Q569-20 422 76L324-63L199 18L305 170Q125 368 125 735Q125 1092 300.50 1288.50Q476 1485 803 1485Q1007 1485 1167 1393L1262 1528L1386 1444L1282 1298Q1475 1095 1475 733M1280 733Q1280 997 1176 1147L520 217Q634 139 801 139Q1036 139 1158 289Q1280 439 1280 733M319 733Q319 474 416 328L1069 1251Q960 1323 803 1323Q565 1323 442 1172.50Q319 1022 319 733Z"  horiz-adv-x="1599" vert-adv-y="2048"  />

      
      <glyph glyph-name="unid9" unicode="&#xd9;" d="M1311 1462L1311 516Q1311 266 1160 123Q1009-20 741-20Q476-20 330 124.50Q184 269 184 520L184 1462L369 1462L369 514Q369 335 464.50 237Q560 139 752 139Q933 139 1030.50 236Q1128 333 1128 516L1128 1462L1311 1462M865 1579L744 1579Q669 1639 579.50 1734.50Q490 1830 453 1886L453 1907L668 1907Q700 1841 759 1749.50Q818 1658 865 1604L865 1579Z"  horiz-adv-x="1497" vert-adv-y="2048"  />

      
      <glyph glyph-name="unida" unicode="&#xda;" d="M1311 1462L1311 516Q1311 266 1160 123Q1009-20 741-20Q476-20 330 124.50Q184 269 184 520L184 1462L369 1462L369 514Q369 335 464.50 237Q560 139 752 139Q933 139 1030.50 236Q1128 333 1128 516L1128 1462L1311 1462M600 1604Q638 1652 696.50 1740.50Q755 1829 795 1907L1012 1907L1012 1886Q968 1822 875 1725Q782 1628 719 1579L600 1579L600 1604Z"  horiz-adv-x="1497" vert-adv-y="2048"  />

      
      <glyph glyph-name="unidb" unicode="&#xdb;" d="M1311 1462L1311 516Q1311 266 1160 123Q1009-20 741-20Q476-20 330 124.50Q184 269 184 520L184 1462L369 1462L369 514Q369 335 464.50 237Q560 139 752 139Q933 139 1030.50 236Q1128 333 1128 516L1128 1462L1311 1462M387 1602Q512 1736 563.50 1800Q615 1864 639 1907L823 1907Q875 1806 1079 1602L1079 1579L952 1579Q862 1632 729 1763Q598 1635 510 1579L387 1579L387 1602Z"  horiz-adv-x="1497" vert-adv-y="2048"  />

      
      <glyph glyph-name="unidc" unicode="&#xdc;" d="M1311 1462L1311 516Q1311 266 1160 123Q1009-20 741-20Q476-20 330 124.50Q184 269 184 520L184 1462L369 1462L369 514Q369 335 464.50 237Q560 139 752 139Q933 139 1030.50 236Q1128 333 1128 516L1128 1462L1311 1462M457 1733Q457 1786 485 1809.50Q513 1833 553 1833Q592 1833 621 1809.50Q650 1786 650 1733Q650 1680 621 1655Q592 1630 553 1630Q513 1630 485 1655Q457 1680 457 1733M842 1733Q842 1786 870 1809.50Q898 1833 936 1833Q975 1833 1004 1809.50Q1033 1786 1033 1733Q1033 1680 1004 1655Q975 1630 936 1630Q898 1630 870 1655Q842 1680 842 1733Z"  horiz-adv-x="1497" vert-adv-y="2048"  />

      
      <glyph glyph-name="unidd" unicode="&#xdd;" d="M580 743L961 1462L1159 1462L672 567L672 0L487 0L487 559L0 1462L201 1462L580 743M442 1604Q480 1652 538.50 1740.50Q597 1829 637 1907L854 1907L854 1886Q810 1822 717 1725Q624 1628 561 1579L442 1579L442 1604Z"  horiz-adv-x="1159" vert-adv-y="2048"  />

      
      <glyph glyph-name="unide" unicode="&#xde;" d="M1135 782Q1135 556 984.50 436.50Q834 317 549 317L383 317L383 0L199 0L199 1462L383 1462L383 1208L580 1208Q861 1208 998 1102.50Q1135 997 1135 782M383 473L530 473Q751 473 847.50 544Q944 615 944 772Q944 916 853 983.50Q762 1051 565 1051L383 1051L383 473Z"  horiz-adv-x="1239" vert-adv-y="2048"  />

      
      <glyph glyph-name="unidf" unicode="&#xdf;" d="M1069 1264Q1069 1125 926 1013Q847 951 814.50 914.50Q782 878 782 844Q782 804 814 771Q846 738 963 662Q1100 570 1150 491.50Q1200 413 1200 313Q1200 152 1101.50 66Q1003-20 819-20Q632-20 522 49L522 211Q586 171 665.50 148Q745 125 813 125Q1024 125 1024 301Q1024 372 983.50 424Q943 476 831 547Q713 622 660.50 684.50Q608 747 608 834Q608 897 642 949.50Q676 1002 748 1055Q822 1110 854.50 1156Q887 1202 887 1253Q887 1331 820.50 1374Q754 1417 627 1417Q354 1417 354 1196L354 0L174 0L174 1196Q174 1377 288 1472Q402 1567 627 1567Q837 1567 953 1487Q1069 1407 1069 1264Z"  horiz-adv-x="1292" vert-adv-y="2048"  />

      
      <glyph glyph-name="unie0" unicode="&#xe0;" d="M852 0L817 156L809 156Q727 53 645.50 16.50Q564-20 440-20Q278-20 186 65Q94 150 94 305Q94 639 621 655L807 662L807 727Q807 852 753 911.50Q699 971 580 971Q493 971 415.50 945Q338 919 270 887L215 1022Q298 1066 396 1091Q494 1116 590 1116Q789 1116 886 1028Q983 940 983 748L983 0L852 0M481 125Q632 125 718.50 206.50Q805 288 805 438L805 537L643 530Q454 523 367.50 470Q281 417 281 303Q281 217 333.50 171Q386 125 481 125M687 1241L566 1241Q491 1301 401.50 1396.50Q312 1492 275 1548L275 1569L490 1569Q522 1503 581 1411.50Q640 1320 687 1266L687 1241Z"  horiz-adv-x="1149" vert-adv-y="2048"  />

      
      <glyph glyph-name="unie1" unicode="&#xe1;" d="M852 0L817 156L809 156Q727 53 645.50 16.50Q564-20 440-20Q278-20 186 65Q94 150 94 305Q94 639 621 655L807 662L807 727Q807 852 753 911.50Q699 971 580 971Q493 971 415.50 945Q338 919 270 887L215 1022Q298 1066 396 1091Q494 1116 590 1116Q789 1116 886 1028Q983 940 983 748L983 0L852 0M481 125Q632 125 718.50 206.50Q805 288 805 438L805 537L643 530Q454 523 367.50 470Q281 417 281 303Q281 217 333.50 171Q386 125 481 125M436 1266Q474 1314 532.50 1402.50Q591 1491 631 1569L848 1569L848 1548Q804 1484 711 1387Q618 1290 555 1241L436 1241L436 1266Z"  horiz-adv-x="1149" vert-adv-y="2048"  />

      
      <glyph glyph-name="unie2" unicode="&#xe2;" d="M852 0L817 156L809 156Q727 53 645.50 16.50Q564-20 440-20Q278-20 186 65Q94 150 94 305Q94 639 621 655L807 662L807 727Q807 852 753 911.50Q699 971 580 971Q493 971 415.50 945Q338 919 270 887L215 1022Q298 1066 396 1091Q494 1116 590 1116Q789 1116 886 1028Q983 940 983 748L983 0L852 0M481 125Q632 125 718.50 206.50Q805 288 805 438L805 537L643 530Q454 523 367.50 470Q281 417 281 303Q281 217 333.50 171Q386 125 481 125M224 1264Q349 1398 400.50 1462Q452 1526 476 1569L660 1569Q712 1468 916 1264L916 1241L789 1241Q699 1294 566 1425Q435 1297 347 1241L224 1241L224 1264Z"  horiz-adv-x="1149" vert-adv-y="2048"  />

      
      <glyph glyph-name="unie3" unicode="&#xe3;" d="M852 0L817 156L809 156Q727 53 645.50 16.50Q564-20 440-20Q278-20 186 65Q94 150 94 305Q94 639 621 655L807 662L807 727Q807 852 753 911.50Q699 971 580 971Q493 971 415.50 945Q338 919 270 887L215 1022Q298 1066 396 1091Q494 1116 590 1116Q789 1116 886 1028Q983 940 983 748L983 0L852 0M481 125Q632 125 718.50 206.50Q805 288 805 438L805 537L643 530Q454 523 367.50 470Q281 417 281 303Q281 217 333.50 171Q386 125 481 125M728 1243Q685 1243 644 1261.50Q603 1280 563.50 1301.50Q524 1323 487.50 1341.50Q451 1360 417 1360Q368 1360 343 1330.50Q318 1301 304 1241L200 1241Q212 1363 270 1433Q328 1503 425 1503Q470 1503 512.50 1484.50Q555 1466 594 1444.50Q633 1423 669 1404.50Q705 1386 737 1386Q785 1386 809.50 1415.50Q834 1445 849 1505L952 1505Q940 1386 882 1314.50Q824 1243 728 1243Z"  horiz-adv-x="1149" vert-adv-y="2048"  />

      
      <glyph glyph-name="unie4" unicode="&#xe4;" d="M852 0L817 156L809 156Q727 53 645.50 16.50Q564-20 440-20Q278-20 186 65Q94 150 94 305Q94 639 621 655L807 662L807 727Q807 852 753 911.50Q699 971 580 971Q493 971 415.50 945Q338 919 270 887L215 1022Q298 1066 396 1091Q494 1116 590 1116Q789 1116 886 1028Q983 940 983 748L983 0L852 0M481 125Q632 125 718.50 206.50Q805 288 805 438L805 537L643 530Q454 523 367.50 470Q281 417 281 303Q281 217 333.50 171Q386 125 481 125M279 1395Q279 1448 307 1471.50Q335 1495 375 1495Q414 1495 443 1471.50Q472 1448 472 1395Q472 1342 443 1317Q414 1292 375 1292Q335 1292 307 1317Q279 1342 279 1395M664 1395Q664 1448 692 1471.50Q720 1495 758 1495Q797 1495 826 1471.50Q855 1448 855 1395Q855 1342 826 1317Q797 1292 758 1292Q720 1292 692 1317Q664 1342 664 1395Z"  horiz-adv-x="1149" vert-adv-y="2048"  />

      
      <glyph glyph-name="unie5" unicode="&#xe5;" d="M852 0L817 156L809 156Q727 53 645.50 16.50Q564-20 440-20Q278-20 186 65Q94 150 94 305Q94 639 621 655L807 662L807 727Q807 852 753 911.50Q699 971 580 971Q493 971 415.50 945Q338 919 270 887L215 1022Q298 1066 396 1091Q494 1116 590 1116Q789 1116 886 1028Q983 940 983 748L983 0L852 0M481 125Q632 125 718.50 206.50Q805 288 805 438L805 537L643 530Q454 523 367.50 470Q281 417 281 303Q281 217 333.50 171Q386 125 481 125M812 1460Q812 1359 749.50 1300Q687 1241 585 1241Q482 1241 422 1299.50Q362 1358 362 1458Q362 1556 422 1614.50Q482 1673 585 1673Q686 1673 749 1614Q812 1555 812 1460M699 1458Q699 1512 666.50 1542.50Q634 1573 585 1573Q535 1573 502.50 1542.50Q470 1512 470 1458Q470 1404 499.50 1373.50Q529 1343 585 1343Q636 1343 667.50 1373.50Q699 1404 699 1458Z"  horiz-adv-x="1149" vert-adv-y="2048"  />

      
      <glyph glyph-name="unie6" unicode="&#xe6;" d="M94 305Q94 639 594 655L778 662L778 731Q778 853 721.50 912Q665 971 549 971Q410 971 242 887L186 1022Q257 1062 358.50 1089Q460 1116 563 1116Q691 1116 773.50 1074.50Q856 1033 899 940Q953 1025 1038 1071.50Q1123 1118 1235 1118Q1432 1118 1548.50 983Q1665 848 1665 627L1665 516L963 516Q971 133 1280 133Q1368 133 1445 149.50Q1522 166 1616 209L1616 51Q1528 12 1452-4Q1376-20 1274-20Q983-20 858 211Q776 87 677 33.50Q578-20 442-20Q278-20 186 65.50Q94 151 94 305M281 303Q281 211 333 168Q385 125 471 125Q611 125 692.50 206.50Q774 288 774 438L774 537L621 530Q444 523 362.50 470Q281 417 281 303M1233 971Q1114 971 1046 890.50Q978 810 967 657L1475 657Q1475 809 1412.50 890Q1350 971 1233 971Z"  horiz-adv-x="1769" vert-adv-y="2048"  />

      
      <glyph glyph-name="unie7" unicode="&#xe7;" d="M614-20Q377-20 245 125.50Q113 271 113 543Q113 819 246.50 968.50Q380 1118 627 1118Q707 1118 785.50 1101.50Q864 1085 915 1059L860 909Q721 961 623 961Q457 961 378 856.50Q299 752 299 545Q299 346 378 240.50Q457 135 612 135Q757 135 897 199L897 39Q783-20 614-20M766-285Q766-384 690.50-438Q615-492 463-492Q398-492 361-481L361-369Q397-379 469-379Q544-379 582.50-359.50Q621-340 621-289Q621-200 434-176L522 0L641 0L588-109Q766-147 766-285Z"  horiz-adv-x="983" vert-adv-y="2048"  />

      
      <glyph glyph-name="unie8" unicode="&#xe8;" d="M641-20Q394-20 253.50 129.50Q113 279 113 541Q113 805 244 961.50Q375 1118 598 1118Q805 1118 928 984.50Q1051 851 1051 623L1051 514L299 514Q304 327 394 230Q484 133 649 133Q737 133 816 148.50Q895 164 1001 209L1001 51Q910 12 830-4Q750-20 641-20M596 971Q467 971 392 888Q317 805 303 657L862 657Q860 811 791 891Q722 971 596 971M724 1241L603 1241Q528 1301 438.50 1396.50Q349 1492 312 1548L312 1569L527 1569Q559 1503 618 1411.50Q677 1320 724 1266L724 1241Z"  horiz-adv-x="1155" vert-adv-y="2048"  />

      
      <glyph glyph-name="unie9" unicode="&#xe9;" d="M641-20Q394-20 253.50 129.50Q113 279 113 541Q113 805 244 961.50Q375 1118 598 1118Q805 1118 928 984.50Q1051 851 1051 623L1051 514L299 514Q304 327 394 230Q484 133 649 133Q737 133 816 148.50Q895 164 1001 209L1001 51Q910 12 830-4Q750-20 641-20M596 971Q467 971 392 888Q317 805 303 657L862 657Q860 811 791 891Q722 971 596 971M467 1266Q505 1314 563.50 1402.50Q622 1491 662 1569L879 1569L879 1548Q835 1484 742 1387Q649 1290 586 1241L467 1241L467 1266Z"  horiz-adv-x="1155" vert-adv-y="2048"  />

      
      <glyph glyph-name="uniea" unicode="&#xea;" d="M641-20Q394-20 253.50 129.50Q113 279 113 541Q113 805 244 961.50Q375 1118 598 1118Q805 1118 928 984.50Q1051 851 1051 623L1051 514L299 514Q304 327 394 230Q484 133 649 133Q737 133 816 148.50Q895 164 1001 209L1001 51Q910 12 830-4Q750-20 641-20M596 971Q467 971 392 888Q317 805 303 657L862 657Q860 811 791 891Q722 971 596 971M253 1264Q378 1398 429.50 1462Q481 1526 505 1569L689 1569Q741 1468 945 1264L945 1241L818 1241Q728 1294 595 1425Q464 1297 376 1241L253 1241L253 1264Z"  horiz-adv-x="1155" vert-adv-y="2048"  />

      
      <glyph glyph-name="unieb" unicode="&#xeb;" d="M641-20Q394-20 253.50 129.50Q113 279 113 541Q113 805 244 961.50Q375 1118 598 1118Q805 1118 928 984.50Q1051 851 1051 623L1051 514L299 514Q304 327 394 230Q484 133 649 133Q737 133 816 148.50Q895 164 1001 209L1001 51Q910 12 830-4Q750-20 641-20M596 971Q467 971 392 888Q317 805 303 657L862 657Q860 811 791 891Q722 971 596 971M315 1395Q315 1448 343 1471.50Q371 1495 411 1495Q450 1495 479 1471.50Q508 1448 508 1395Q508 1342 479 1317Q450 1292 411 1292Q371 1292 343 1317Q315 1342 315 1395M700 1395Q700 1448 728 1471.50Q756 1495 794 1495Q833 1495 862 1471.50Q891 1448 891 1395Q891 1342 862 1317Q833 1292 794 1292Q756 1292 728 1317Q700 1342 700 1395Z"  horiz-adv-x="1155" vert-adv-y="2048"  />

      
      <glyph glyph-name="uniec" unicode="&#xec;" d="M354 0L174 0L174 1098L354 1098L354 0M368 1241L247 1241Q172 1301 82.50 1396.50Q-7 1492-44 1548L-44 1569L171 1569Q203 1503 262 1411.50Q321 1320 368 1266L368 1241Z"  horiz-adv-x="528" vert-adv-y="2048"  />

      
      <glyph glyph-name="unied" unicode="&#xed;" d="M354 0L174 0L174 1098L354 1098L354 0M167 1266Q205 1314 263.50 1402.50Q322 1491 362 1569L579 1569L579 1548Q535 1484 442 1387Q349 1290 286 1241L167 1241L167 1266Z"  horiz-adv-x="528" vert-adv-y="2048"  />

      
      <glyph glyph-name="uniee" unicode="&#xee;" d="M354 0L174 0L174 1098L354 1098L354 0M-81 1264Q44 1398 95.50 1462Q147 1526 171 1569L355 1569Q407 1468 611 1264L611 1241L484 1241Q394 1294 261 1425Q130 1297 42 1241L-81 1241L-81 1264Z"  horiz-adv-x="528" vert-adv-y="2048"  />

      
      <glyph glyph-name="unief" unicode="&#xef;" d="M354 0L174 0L174 1098L354 1098L354 0M-22 1395Q-22 1448 6 1471.50Q34 1495 74 1495Q113 1495 142 1471.50Q171 1448 171 1395Q171 1342 142 1317Q113 1292 74 1292Q34 1292 6 1317Q-22 1342-22 1395M363 1395Q363 1448 391 1471.50Q419 1495 457 1495Q496 1495 525 1471.50Q554 1448 554 1395Q554 1342 525 1317Q496 1292 457 1292Q419 1292 391 1317Q363 1342 363 1395Z"  horiz-adv-x="528" vert-adv-y="2048"  />

      
      <glyph glyph-name="unif0" unicode="&#xf0;" d="M1128 563Q1128 281 995 130.50Q862-20 616-20Q391-20 252 115.50Q113 251 113 477Q113 706 242.50 837.50Q372 969 594 969Q819 969 913 850L922 854Q863 1068 668 1245L401 1092L324 1204L553 1335Q467 1393 369 1444L442 1567Q598 1494 700 1419L936 1556L1014 1446L811 1329Q962 1189 1045 991.50Q1128 794 1128 563M946 514Q946 657 858.50 740Q771 823 621 823Q455 823 375 736.50Q295 650 295 471Q295 306 379 216.50Q463 127 621 127Q790 127 868 226Q946 325 946 514Z"  horiz-adv-x="1239" vert-adv-y="2048"  />

      
      <glyph glyph-name="unif1" unicode="&#xf1;" d="M922 0L922 702Q922 836 862.50 901.50Q803 967 676 967Q507 967 430.50 873.50Q354 780 354 569L354 0L174 0L174 1098L319 1098L346 948L356 948Q407 1029 499 1073.50Q591 1118 702 1118Q904 1118 1002 1020Q1100 922 1100 715L1100 0L922 0M802 1243Q759 1243 718 1261.50Q677 1280 637.50 1301.50Q598 1323 561.50 1341.50Q525 1360 491 1360Q442 1360 417 1330.50Q392 1301 378 1241L274 1241Q286 1363 344 1433Q402 1503 499 1503Q544 1503 586.50 1484.50Q629 1466 668 1444.50Q707 1423 743 1404.50Q779 1386 811 1386Q859 1386 883.50 1415.50Q908 1445 923 1505L1026 1505Q1014 1386 956 1314.50Q898 1243 802 1243Z"  horiz-adv-x="1266" vert-adv-y="2048"  />

      
      <glyph glyph-name="unif2" unicode="&#xf2;" d="M1128 551Q1128 282 992 131Q856-20 616-20Q467-20 352 49.50Q237 119 175 249Q113 379 113 551Q113 819 247 968.50Q381 1118 623 1118Q855 1118 991.50 965.50Q1128 813 1128 551M299 551Q299 344 380.50 236.50Q462 129 621 129Q778 129 860 236.50Q942 344 942 551Q942 758 859.50 862.50Q777 967 618 967Q299 967 299 551M751 1241L630 1241Q555 1301 465.50 1396.50Q376 1492 339 1548L339 1569L554 1569Q586 1503 645 1411.50Q704 1320 751 1266L751 1241Z"  horiz-adv-x="1239" vert-adv-y="2048"  />

      
      <glyph glyph-name="unif3" unicode="&#xf3;" d="M1128 551Q1128 282 992 131Q856-20 616-20Q467-20 352 49.50Q237 119 175 249Q113 379 113 551Q113 819 247 968.50Q381 1118 623 1118Q855 1118 991.50 965.50Q1128 813 1128 551M299 551Q299 344 380.50 236.50Q462 129 621 129Q778 129 860 236.50Q942 344 942 551Q942 758 859.50 862.50Q777 967 618 967Q299 967 299 551M477 1266Q515 1314 573.50 1402.50Q632 1491 672 1569L889 1569L889 1548Q845 1484 752 1387Q659 1290 596 1241L477 1241L477 1266Z"  horiz-adv-x="1239" vert-adv-y="2048"  />

      
      <glyph glyph-name="unif4" unicode="&#xf4;" d="M1128 551Q1128 282 992 131Q856-20 616-20Q467-20 352 49.50Q237 119 175 249Q113 379 113 551Q113 819 247 968.50Q381 1118 623 1118Q855 1118 991.50 965.50Q1128 813 1128 551M299 551Q299 344 380.50 236.50Q462 129 621 129Q778 129 860 236.50Q942 344 942 551Q942 758 859.50 862.50Q777 967 618 967Q299 967 299 551M272 1264Q397 1398 448.50 1462Q500 1526 524 1569L708 1569Q760 1468 964 1264L964 1241L837 1241Q747 1294 614 1425Q483 1297 395 1241L272 1241L272 1264Z"  horiz-adv-x="1239" vert-adv-y="2048"  />

      
      <glyph glyph-name="unif5" unicode="&#xf5;" d="M1128 551Q1128 282 992 131Q856-20 616-20Q467-20 352 49.50Q237 119 175 249Q113 379 113 551Q113 819 247 968.50Q381 1118 623 1118Q855 1118 991.50 965.50Q1128 813 1128 551M299 551Q299 344 380.50 236.50Q462 129 621 129Q778 129 860 236.50Q942 344 942 551Q942 758 859.50 862.50Q777 967 618 967Q299 967 299 551M775 1243Q732 1243 691 1261.50Q650 1280 610.50 1301.50Q571 1323 534.50 1341.50Q498 1360 464 1360Q415 1360 390 1330.50Q365 1301 351 1241L247 1241Q259 1363 317 1433Q375 1503 472 1503Q517 1503 559.50 1484.50Q602 1466 641 1444.50Q680 1423 716 1404.50Q752 1386 784 1386Q832 1386 856.50 1415.50Q881 1445 896 1505L999 1505Q987 1386 929 1314.50Q871 1243 775 1243Z"  horiz-adv-x="1239" vert-adv-y="2048"  />

      
      <glyph glyph-name="unif6" unicode="&#xf6;" d="M1128 551Q1128 282 992 131Q856-20 616-20Q467-20 352 49.50Q237 119 175 249Q113 379 113 551Q113 819 247 968.50Q381 1118 623 1118Q855 1118 991.50 965.50Q1128 813 1128 551M299 551Q299 344 380.50 236.50Q462 129 621 129Q778 129 860 236.50Q942 344 942 551Q942 758 859.50 862.50Q777 967 618 967Q299 967 299 551M330 1395Q330 1448 358 1471.50Q386 1495 426 1495Q465 1495 494 1471.50Q523 1448 523 1395Q523 1342 494 1317Q465 1292 426 1292Q386 1292 358 1317Q330 1342 330 1395M715 1395Q715 1448 743 1471.50Q771 1495 809 1495Q848 1495 877 1471.50Q906 1448 906 1395Q906 1342 877 1317Q848 1292 809 1292Q771 1292 743 1317Q715 1342 715 1395Z"  horiz-adv-x="1239" vert-adv-y="2048"  />

      
      <glyph glyph-name="unif7" unicode="&#xf7;" d="M102 649L102 795L1067 795L1067 649L102 649M469 373Q469 496 584 496Q696 496 696 373Q696 307 663 277.50Q630 248 584 248Q536 248 502.50 277.50Q469 307 469 373M469 1071Q469 1194 584 1194Q696 1194 696 1071Q696 1005 663 975.50Q630 946 584 946Q536 946 502.50 975.50Q469 1005 469 1071Z"  horiz-adv-x="1171" vert-adv-y="2048"  />

      
      <glyph glyph-name="unif8" unicode="&#xf8;" d="M1128 551Q1128 282 992 131Q856-20 616-20Q465-20 352 47L270-68L152 12L244 139Q113 295 113 551Q113 819 247 968.50Q381 1118 623 1118Q774 1118 891 1044L971 1159L1092 1081L999 952Q1128 797 1128 551M299 551Q299 385 348 289L799 915Q726 967 618 967Q299 967 299 551M942 551Q942 703 895 803L444 176Q513 129 621 129Q778 129 860 236.50Q942 344 942 551Z"  horiz-adv-x="1239" vert-adv-y="2048"  />

      
      <glyph glyph-name="unif9" unicode="&#xf9;" d="M344 1098L344 391Q344 258 403.50 193.50Q463 129 588 129Q757 129 834 223Q911 317 911 526L911 1098L1092 1098L1092 0L944 0L918 145L909 145Q860 66 770 23Q680-20 561-20Q363-20 262.50 75Q162 170 162 379L162 1098L344 1098M737 1241L616 1241Q541 1301 451.50 1396.50Q362 1492 325 1548L325 1569L540 1569Q572 1503 631 1411.50Q690 1320 737 1266L737 1241Z"  horiz-adv-x="1266" vert-adv-y="2048"  />

      
      <glyph glyph-name="unifa" unicode="&#xfa;" d="M344 1098L344 391Q344 258 403.50 193.50Q463 129 588 129Q757 129 834 223Q911 317 911 526L911 1098L1092 1098L1092 0L944 0L918 145L909 145Q860 66 770 23Q680-20 561-20Q363-20 262.50 75Q162 170 162 379L162 1098L344 1098M504 1266Q542 1314 600.50 1402.50Q659 1491 699 1569L916 1569L916 1548Q872 1484 779 1387Q686 1290 623 1241L504 1241L504 1266Z"  horiz-adv-x="1266" vert-adv-y="2048"  />

      
      <glyph glyph-name="unifb" unicode="&#xfb;" d="M344 1098L344 391Q344 258 403.50 193.50Q463 129 588 129Q757 129 834 223Q911 317 911 526L911 1098L1092 1098L1092 0L944 0L918 145L909 145Q860 66 770 23Q680-20 561-20Q363-20 262.50 75Q162 170 162 379L162 1098L344 1098M280 1264Q405 1398 456.50 1462Q508 1526 532 1569L716 1569Q768 1468 972 1264L972 1241L845 1241Q755 1294 622 1425Q491 1297 403 1241L280 1241L280 1264Z"  horiz-adv-x="1266" vert-adv-y="2048"  />

      
      <glyph glyph-name="unifc" unicode="&#xfc;" d="M344 1098L344 391Q344 258 403.50 193.50Q463 129 588 129Q757 129 834 223Q911 317 911 526L911 1098L1092 1098L1092 0L944 0L918 145L909 145Q860 66 770 23Q680-20 561-20Q363-20 262.50 75Q162 170 162 379L162 1098L344 1098M338 1395Q338 1448 366 1471.50Q394 1495 434 1495Q473 1495 502 1471.50Q531 1448 531 1395Q531 1342 502 1317Q473 1292 434 1292Q394 1292 366 1317Q338 1342 338 1395M723 1395Q723 1448 751 1471.50Q779 1495 817 1495Q856 1495 885 1471.50Q914 1448 914 1395Q914 1342 885 1317Q856 1292 817 1292Q779 1292 751 1317Q723 1342 723 1395Z"  horiz-adv-x="1266" vert-adv-y="2048"  />

      
      <glyph glyph-name="unifd" unicode="&#xfd;" d="M2 1098L195 1098L432 473Q507 269 524 174L532 174Q541 211 573 312.50Q605 414 627 475L850 1098L1044 1098L571-152Q502-334 407-413Q312-492 172-492Q97-492 23-475L23-332Q73-344 143-344Q229-344 289-296.50Q349-249 387-150L444-4L2 1098M410 1266Q448 1314 506.50 1402.50Q565 1491 605 1569L822 1569L822 1548Q778 1484 685 1387Q592 1290 529 1241L410 1241L410 1266Z"  horiz-adv-x="1044" vert-adv-y="2048"  />

      
      <glyph glyph-name="unife" unicode="&#xfe;" d="M356 950Q423 1041 506.50 1079.50Q590 1118 696 1118Q909 1118 1028 968.50Q1147 819 1147 551Q1147 282 1028 131Q909-20 696-20Q474-20 354 139L342 139Q354 7 354-33L354-492L174-492L174 1556L354 1556L354 1098Q354 1028 348 950L356 950M666 967Q505 967 430.50 877.50Q356 788 354 590L354 551Q354 328 428 228.50Q502 129 668 129Q961 129 961 553Q961 761 889.50 864Q818 967 666 967Z"  horiz-adv-x="1260" vert-adv-y="2048"  />

      
      <glyph glyph-name="uniff" unicode="&#xff;" d="M2 1098L195 1098L432 473Q507 269 524 174L532 174Q541 211 573 312.50Q605 414 627 475L850 1098L1044 1098L571-152Q502-334 407-413Q312-492 172-492Q97-492 23-475L23-332Q73-344 143-344Q229-344 289-296.50Q349-249 387-150L444-4L2 1098M234 1395Q234 1448 262 1471.50Q290 1495 330 1495Q369 1495 398 1471.50Q427 1448 427 1395Q427 1342 398 1317Q369 1292 330 1292Q290 1292 262 1317Q234 1342 234 1395M619 1395Q619 1448 647 1471.50Q675 1495 713 1495Q752 1495 781 1471.50Q810 1448 810 1395Q810 1342 781 1317Q752 1292 713 1292Q675 1292 647 1317Q619 1342 619 1395Z"  horiz-adv-x="1044" vert-adv-y="2048"  />

      
      <glyph glyph-name="uni0100" unicode="&#x0100;" d="M1116 0L940 453L360 453L186 0L0 0L571 1468L737 1468L1307 0L1116 0M885 616L721 1059L651 1278Q621 1158 588 1059L422 616L885 616M365 1724L973 1724L973 1579L365 1579L365 1724Z"  horiz-adv-x="1309" vert-adv-y="2048"  />

      
      <glyph glyph-name="uni0101" unicode="&#x0101;" d="M852 0L817 156L809 156Q727 53 645.50 16.50Q564-20 440-20Q278-20 186 65Q94 150 94 305Q94 639 621 655L807 662L807 727Q807 852 753 911.50Q699 971 580 971Q493 971 415.50 945Q338 919 270 887L215 1022Q298 1066 396 1091Q494 1116 590 1116Q789 1116 886 1028Q983 940 983 748L983 0L852 0M481 125Q632 125 718.50 206.50Q805 288 805 438L805 537L643 530Q454 523 367.50 470Q281 417 281 303Q281 217 333.50 171Q386 125 481 125M292 1386L900 1386L900 1241L292 1241L292 1386Z"  horiz-adv-x="1149" vert-adv-y="2048"  />

      
      <glyph glyph-name="uni0102" unicode="&#x0102;" d="M1116 0L940 453L360 453L186 0L0 0L571 1468L737 1468L1307 0L1116 0M885 616L721 1059L651 1278Q621 1158 588 1059L422 616L885 616M647 1579Q506 1579 424.50 1648Q343 1717 334 1854L444 1854Q452 1783 494 1753.50Q536 1724 651 1724Q752 1724 801 1755.50Q850 1787 858 1854L971 1854Q958 1723 872 1651Q786 1579 647 1579Z"  horiz-adv-x="1309" vert-adv-y="2048"  />

      
      <glyph glyph-name="uni0103" unicode="&#x0103;" d="M852 0L817 156L809 156Q727 53 645.50 16.50Q564-20 440-20Q278-20 186 65Q94 150 94 305Q94 639 621 655L807 662L807 727Q807 852 753 911.50Q699 971 580 971Q493 971 415.50 945Q338 919 270 887L215 1022Q298 1066 396 1091Q494 1116 590 1116Q789 1116 886 1028Q983 940 983 748L983 0L852 0M481 125Q632 125 718.50 206.50Q805 288 805 438L805 537L643 530Q454 523 367.50 470Q281 417 281 303Q281 217 333.50 171Q386 125 481 125M576 1241Q435 1241 353.50 1310Q272 1379 263 1516L373 1516Q381 1445 423 1415.50Q465 1386 580 1386Q681 1386 730 1417.50Q779 1449 787 1516L900 1516Q887 1385 801 1313Q715 1241 576 1241Z"  horiz-adv-x="1149" vert-adv-y="2048"  />

      
      <glyph glyph-name="uni0104" unicode="&#x0104;" d="M1116 0L940 453L360 453L186 0L0 0L571 1468L737 1468L1307 0L1116 0M885 616L721 1059L651 1278Q621 1158 588 1059L422 616L885 616M1106-238Q1106-284 1130.50-307Q1155-330 1198-330Q1242-330 1297-317L1297-432Q1228-451 1170-451Q959-451 959-258Q959-119 1119 0L1246 0Q1176-66 1141-120.50Q1106-175 1106-238Z"  horiz-adv-x="1309" vert-adv-y="2048"  />

      
      <glyph glyph-name="uni0105" unicode="&#x0105;" d="M852 0L817 156L809 156Q727 53 645.50 16.50Q564-20 440-20Q278-20 186 65Q94 150 94 305Q94 639 621 655L807 662L807 727Q807 852 753 911.50Q699 971 580 971Q493 971 415.50 945Q338 919 270 887L215 1022Q298 1066 396 1091Q494 1116 590 1116Q789 1116 886 1028Q983 940 983 748L983 0L852 0M481 125Q632 125 718.50 206.50Q805 288 805 438L805 537L643 530Q454 523 367.50 470Q281 417 281 303Q281 217 333.50 171Q386 125 481 125M839-238Q839-284 863.50-307Q888-330 931-330Q975-330 1030-317L1030-432Q961-451 903-451Q692-451 692-258Q692-119 852 0L979 0Q909-66 874-120.50Q839-175 839-238Z"  horiz-adv-x="1149" vert-adv-y="2048"  />

      
      <glyph glyph-name="uni0106" unicode="&#x0106;" d="M825 1321Q589 1321 454 1163Q319 1005 319 731Q319 448 450 294.50Q581 141 823 141Q979 141 1174 199L1174 39Q1081 5 995-7.50Q909-20 797-20Q474-20 299.50 176.50Q125 373 125 733Q125 959 208.50 1129Q292 1299 451.50 1391Q611 1483 827 1483Q1059 1483 1231 1397L1157 1241Q982 1321 825 1321M651 1604Q689 1652 747.50 1740.50Q806 1829 846 1907L1063 1907L1063 1886Q1019 1822 926 1725Q833 1628 770 1579L651 1579L651 1604Z"  horiz-adv-x="1294" vert-adv-y="2048"  />

      
      <glyph glyph-name="uni0107" unicode="&#x0107;" d="M614-20Q377-20 245 125.50Q113 271 113 543Q113 819 246.50 968.50Q380 1118 627 1118Q707 1118 785.50 1101.50Q864 1085 915 1059L860 909Q721 961 623 961Q457 961 378 856.50Q299 752 299 545Q299 346 378 240.50Q457 135 612 135Q757 135 897 199L897 39Q783-20 614-20M459 1266Q497 1314 555.50 1402.50Q614 1491 654 1569L871 1569L871 1548Q827 1484 734 1387Q641 1290 578 1241L459 1241L459 1266Z"  horiz-adv-x="983" vert-adv-y="2048"  />

      
      <glyph glyph-name="uni0108" unicode="&#x0108;" d="M825 1321Q589 1321 454 1163Q319 1005 319 731Q319 448 450 294.50Q581 141 823 141Q979 141 1174 199L1174 39Q1081 5 995-7.50Q909-20 797-20Q474-20 299.50 176.50Q125 373 125 733Q125 959 208.50 1129Q292 1299 451.50 1391Q611 1483 827 1483Q1059 1483 1231 1397L1157 1241Q982 1321 825 1321M450 1602Q575 1736 626.50 1800Q678 1864 702 1907L886 1907Q938 1806 1142 1602L1142 1579L1015 1579Q925 1632 792 1763Q661 1635 573 1579L450 1579L450 1602Z"  horiz-adv-x="1294" vert-adv-y="2048"  />

      
      <glyph glyph-name="uni0109" unicode="&#x0109;" d="M614-20Q377-20 245 125.50Q113 271 113 543Q113 819 246.50 968.50Q380 1118 627 1118Q707 1118 785.50 1101.50Q864 1085 915 1059L860 909Q721 961 623 961Q457 961 378 856.50Q299 752 299 545Q299 346 378 240.50Q457 135 612 135Q757 135 897 199L897 39Q783-20 614-20M241 1264Q366 1398 417.50 1462Q469 1526 493 1569L677 1569Q729 1468 933 1264L933 1241L806 1241Q716 1294 583 1425Q452 1297 364 1241L241 1241L241 1264Z"  horiz-adv-x="983" vert-adv-y="2048"  />

      
      <glyph glyph-name="uni010A" unicode="&#x010A;" d="M825 1321Q589 1321 454 1163Q319 1005 319 731Q319 448 450 294.50Q581 141 823 141Q979 141 1174 199L1174 39Q1081 5 995-7.50Q909-20 797-20Q474-20 299.50 176.50Q125 373 125 733Q125 959 208.50 1129Q292 1299 451.50 1391Q611 1483 827 1483Q1059 1483 1231 1397L1157 1241Q982 1321 825 1321M690 1733Q690 1793 720.50 1820Q751 1847 796 1847Q838 1847 869.50 1820Q901 1793 901 1733Q901 1674 869.50 1646Q838 1618 796 1618Q751 1618 720.50 1646Q690 1674 690 1733Z"  horiz-adv-x="1294" vert-adv-y="2048"  />

      
      <glyph glyph-name="uni010B" unicode="&#x010B;" d="M614-20Q377-20 245 125.50Q113 271 113 543Q113 819 246.50 968.50Q380 1118 627 1118Q707 1118 785.50 1101.50Q864 1085 915 1059L860 909Q721 961 623 961Q457 961 378 856.50Q299 752 299 545Q299 346 378 240.50Q457 135 612 135Q757 135 897 199L897 39Q783-20 614-20M494 1395Q494 1455 524.50 1482Q555 1509 600 1509Q642 1509 673.50 1482Q705 1455 705 1395Q705 1336 673.50 1308Q642 1280 600 1280Q555 1280 524.50 1308Q494 1336 494 1395Z"  horiz-adv-x="983" vert-adv-y="2048"  />

      
      <glyph glyph-name="uni010C" unicode="&#x010C;" d="M825 1321Q589 1321 454 1163Q319 1005 319 731Q319 448 450 294.50Q581 141 823 141Q979 141 1174 199L1174 39Q1081 5 995-7.50Q909-20 797-20Q474-20 299.50 176.50Q125 373 125 733Q125 959 208.50 1129Q292 1299 451.50 1391Q611 1483 827 1483Q1059 1483 1231 1397L1157 1241Q982 1321 825 1321M450 1907L573 1907Q687 1833 792 1718Q918 1844 1015 1907L1142 1907L1142 1880Q937 1675 886 1579L702 1579Q642 1681 450 1880L450 1907Z"  horiz-adv-x="1294" vert-adv-y="2048"  />

      
      <glyph glyph-name="uni010D" unicode="&#x010D;" d="M614-20Q377-20 245 125.50Q113 271 113 543Q113 819 246.50 968.50Q380 1118 627 1118Q707 1118 785.50 1101.50Q864 1085 915 1059L860 909Q721 961 623 961Q457 961 378 856.50Q299 752 299 545Q299 346 378 240.50Q457 135 612 135Q757 135 897 199L897 39Q783-20 614-20M249 1569L372 1569Q486 1495 591 1380Q717 1506 814 1569L941 1569L941 1542Q736 1337 685 1241L501 1241Q441 1343 249 1542L249 1569Z"  horiz-adv-x="983" vert-adv-y="2048"  />

      
      <glyph glyph-name="uni010E" unicode="&#x010E;" d="M1370 745Q1370 383 1172.50 191.50Q975 0 606 0L199 0L199 1462L649 1462Q990 1462 1180 1274.50Q1370 1087 1370 745M1176 739Q1176 1018 1038.50 1161.50Q901 1305 623 1305L383 1305L383 158L582 158Q1176 158 1176 739M348 1907L471 1907Q585 1833 690 1718Q816 1844 913 1907L1040 1907L1040 1880Q835 1675 784 1579L600 1579Q540 1681 348 1880L348 1907Z"  horiz-adv-x="1495" vert-adv-y="2048"  />

      
      <glyph glyph-name="uni010F" unicode="&#x010F;" d="M563-20Q349-20 231 128Q113 276 113 547Q113 816 231.50 967Q350 1118 565 1118Q786 1118 905 956L918 956Q915 976 910 1036.50Q905 1097 905 1118L905 1556L1085 1556L1085 0L940 0L913 147L905 147Q790-20 563-20M592 129Q756 129 831.50 218.50Q907 308 907 512L907 545Q907 774 830.50 871.50Q754 969 590 969Q451 969 375 858.50Q299 748 299 543Q299 339 374.50 234Q450 129 592 129M1177 1253Q1200 1319 1219.50 1412Q1239 1505 1245 1556L1423 1556L1423 1538Q1410 1485 1367 1393Q1324 1301 1275 1229L1177 1229L1177 1253Z"  horiz-adv-x="1260" vert-adv-y="2048"  />

      
      <glyph glyph-name="uni0110" unicode="&#x0110;" d="M1370 745Q1370 386 1173.50 193Q977 0 604 0L213 0L213 643L61 643L61 803L213 803L213 1462L649 1462Q990 1462 1180 1273.50Q1370 1085 1370 745M1176 739Q1176 1019 1037 1162Q898 1305 623 1305L397 1305L397 803L762 803L762 643L397 643L397 158L582 158Q1176 158 1176 739Z"  horiz-adv-x="1495" vert-adv-y="2048"  />

      
      <glyph glyph-name="uni0111" unicode="&#x0111;" d="M563-20Q349-20 231 127Q113 274 113 543Q113 814 230.50 963Q348 1112 563 1112Q786 1112 905 950L918 950Q915 964 910 1019Q905 1074 905 1114L905 1239L469 1239L469 1374L905 1374L905 1556L1085 1556L1085 1374L1241 1374L1241 1239L1085 1239L1085 0L938 0L911 147L903 147Q788-20 563-20M594 129Q757 129 832 217.50Q907 306 907 508L907 543Q907 773 831 868Q755 963 590 963Q450 963 375.50 856Q301 749 301 541Q301 344 373 236.50Q445 129 594 129Z"  horiz-adv-x="1264" vert-adv-y="2048"  />

      
      <glyph glyph-name="uni0112" unicode="&#x0112;" d="M1016 0L199 0L199 1462L1016 1462L1016 1300L383 1300L383 844L979 844L979 684L383 684L383 162L1016 162L1016 0M303 1724L911 1724L911 1579L303 1579L303 1724Z"  horiz-adv-x="1139" vert-adv-y="2048"  />

      
      <glyph glyph-name="uni0113" unicode="&#x0113;" d="M641-20Q394-20 253.50 129.50Q113 279 113 541Q113 805 244 961.50Q375 1118 598 1118Q805 1118 928 984.50Q1051 851 1051 623L1051 514L299 514Q304 327 394 230Q484 133 649 133Q737 133 816 148.50Q895 164 1001 209L1001 51Q910 12 830-4Q750-20 641-20M596 971Q467 971 392 888Q317 805 303 657L862 657Q860 811 791 891Q722 971 596 971M307 1386L915 1386L915 1241L307 1241L307 1386Z"  horiz-adv-x="1155" vert-adv-y="2048"  />

      
      <glyph glyph-name="uni0114" unicode="&#x0114;" d="M1016 0L199 0L199 1462L1016 1462L1016 1300L383 1300L383 844L979 844L979 684L383 684L383 162L1016 162L1016 0M612 1579Q471 1579 389.50 1648Q308 1717 299 1854L409 1854Q417 1783 459 1753.50Q501 1724 616 1724Q717 1724 766 1755.50Q815 1787 823 1854L936 1854Q923 1723 837 1651Q751 1579 612 1579Z"  horiz-adv-x="1139" vert-adv-y="2048"  />

      
      <glyph glyph-name="uni0115" unicode="&#x0115;" d="M641-20Q394-20 253.50 129.50Q113 279 113 541Q113 805 244 961.50Q375 1118 598 1118Q805 1118 928 984.50Q1051 851 1051 623L1051 514L299 514Q304 327 394 230Q484 133 649 133Q737 133 816 148.50Q895 164 1001 209L1001 51Q910 12 830-4Q750-20 641-20M596 971Q467 971 392 888Q317 805 303 657L862 657Q860 811 791 891Q722 971 596 971M597 1241Q456 1241 374.50 1310Q293 1379 284 1516L394 1516Q402 1445 444 1415.50Q486 1386 601 1386Q702 1386 751 1417.50Q800 1449 808 1516L921 1516Q908 1385 822 1313Q736 1241 597 1241Z"  horiz-adv-x="1155" vert-adv-y="2048"  />

      
      <glyph glyph-name="uni0116" unicode="&#x0116;" d="M1016 0L199 0L199 1462L1016 1462L1016 1300L383 1300L383 844L979 844L979 684L383 684L383 162L1016 162L1016 0M518 1704Q518 1764 548.50 1791Q579 1818 624 1818Q666 1818 697.50 1791Q729 1764 729 1704Q729 1645 697.50 1617Q666 1589 624 1589Q579 1589 548.50 1617Q518 1645 518 1704Z"  horiz-adv-x="1139" vert-adv-y="2048"  />

      
      <glyph glyph-name="uni0117" unicode="&#x0117;" d="M641-20Q394-20 253.50 129.50Q113 279 113 541Q113 805 244 961.50Q375 1118 598 1118Q805 1118 928 984.50Q1051 851 1051 623L1051 514L299 514Q304 327 394 230Q484 133 649 133Q737 133 816 148.50Q895 164 1001 209L1001 51Q910 12 830-4Q750-20 641-20M596 971Q467 971 392 888Q317 805 303 657L862 657Q860 811 791 891Q722 971 596 971M498 1395Q498 1455 528.50 1482Q559 1509 604 1509Q646 1509 677.50 1482Q709 1455 709 1395Q709 1336 677.50 1308Q646 1280 604 1280Q559 1280 528.50 1308Q498 1336 498 1395Z"  horiz-adv-x="1155" vert-adv-y="2048"  />

      
      <glyph glyph-name="uni0118" unicode="&#x0118;" d="M1016 0L199 0L199 1462L1016 1462L1016 1300L383 1300L383 844L979 844L979 684L383 684L383 162L1016 162L1016 0M803-238Q803-284 827.50-307Q852-330 895-330Q939-330 994-317L994-432Q925-451 867-451Q656-451 656-258Q656-119 816 0L943 0Q873-66 838-120.50Q803-175 803-238Z"  horiz-adv-x="1139" vert-adv-y="2048"  />

      
      <glyph glyph-name="uni0119" unicode="&#x0119;" d="M641-20Q394-20 253.50 129.50Q113 279 113 541Q113 805 244 961.50Q375 1118 598 1118Q805 1118 928 984.50Q1051 851 1051 623L1051 514L299 514Q304 327 394 230Q484 133 649 133Q737 133 816 148.50Q895 164 1001 209L1001 51Q910 12 830-4Q750-20 641-20M596 971Q467 971 392 888Q317 805 303 657L862 657Q860 811 791 891Q722 971 596 971M792-209Q792-255 816.50-278Q841-301 884-301Q928-301 983-288L983-403Q914-422 856-422Q645-422 645-229Q645-90 805 29L932 29Q862-37 827-91.50Q792-146 792-209Z"  horiz-adv-x="1155" vert-adv-y="2048"  />

      
      <glyph glyph-name="uni011A" unicode="&#x011A;" d="M1016 0L199 0L199 1462L1016 1462L1016 1300L383 1300L383 844L979 844L979 684L383 684L383 162L1016 162L1016 0M272 1907L395 1907Q509 1833 614 1718Q740 1844 837 1907L964 1907L964 1880Q759 1675 708 1579L524 1579Q464 1681 272 1880L272 1907Z"  horiz-adv-x="1139" vert-adv-y="2048"  />

      
      <glyph glyph-name="uni011B" unicode="&#x011B;" d="M641-20Q394-20 253.50 129.50Q113 279 113 541Q113 805 244 961.50Q375 1118 598 1118Q805 1118 928 984.50Q1051 851 1051 623L1051 514L299 514Q304 327 394 230Q484 133 649 133Q737 133 816 148.50Q895 164 1001 209L1001 51Q910 12 830-4Q750-20 641-20M596 971Q467 971 392 888Q317 805 303 657L862 657Q860 811 791 891Q722 971 596 971M257 1569L380 1569Q494 1495 599 1380Q725 1506 822 1569L949 1569L949 1542Q744 1337 693 1241L509 1241Q449 1343 257 1542L257 1569Z"  horiz-adv-x="1155" vert-adv-y="2048"  />

      
      <glyph glyph-name="uni011C" unicode="&#x011C;" d="M834 772L1339 772L1339 55Q1223 18 1103-1Q983-20 825-20Q491-20 308 178Q125 376 125 731Q125 960 216 1131Q307 1302 478.50 1392.50Q650 1483 883 1483Q1117 1483 1319 1397L1249 1237Q1056 1321 872 1321Q611 1321 464 1163Q317 1005 317 731Q317 441 458 290Q599 139 868 139Q1015 139 1155 174L1155 608L834 608L834 772M508 1602Q633 1736 684.50 1800Q736 1864 760 1907L944 1907Q996 1806 1200 1602L1200 1579L1073 1579Q983 1632 850 1763Q719 1635 631 1579L508 1579L508 1602Z"  horiz-adv-x="1491" vert-adv-y="2048"  />

      
      <glyph glyph-name="uni011D" unicode="&#x011D;" d="M592 127Q758 127 833.50 216.50Q909 306 909 504L909 547Q909 767 833 867Q757 967 588 967Q450 967 374.50 857.50Q299 748 299 545Q299 341 372.50 234Q446 127 592 127M907 10L913 145L905 145Q794-20 565-20Q352-20 232.50 128.50Q113 277 113 547Q113 812 233.50 965Q354 1118 563 1118Q786 1118 907 952L918 952L942 1098L1085 1098L1085-18Q1085-254 965.50-373Q846-492 594-492Q354-492 199-422L199-256Q359-342 604-342Q744-342 825.50-260Q907-178 907-33L907 10M270 1264Q395 1398 446.50 1462Q498 1526 522 1569L706 1569Q758 1468 962 1264L962 1241L835 1241Q745 1294 612 1425Q481 1297 393 1241L270 1241L270 1264Z"  horiz-adv-x="1260" vert-adv-y="2048"  />

      
      <glyph glyph-name="uni011E" unicode="&#x011E;" d="M834 772L1339 772L1339 55Q1223 18 1103-1Q983-20 825-20Q491-20 308 178Q125 376 125 731Q125 960 216 1131Q307 1302 478.50 1392.50Q650 1483 883 1483Q1117 1483 1319 1397L1249 1237Q1056 1321 872 1321Q611 1321 464 1163Q317 1005 317 731Q317 441 458 290Q599 139 868 139Q1015 139 1155 174L1155 608L834 608L834 772M848 1579Q707 1579 625.50 1648Q544 1717 535 1854L645 1854Q653 1783 695 1753.50Q737 1724 852 1724Q953 1724 1002 1755.50Q1051 1787 1059 1854L1172 1854Q1159 1723 1073 1651Q987 1579 848 1579Z"  horiz-adv-x="1491" vert-adv-y="2048"  />

      
      <glyph glyph-name="uni011F" unicode="&#x011F;" d="M592 127Q758 127 833.50 216.50Q909 306 909 504L909 547Q909 767 833 867Q757 967 588 967Q450 967 374.50 857.50Q299 748 299 545Q299 341 372.50 234Q446 127 592 127M907 10L913 145L905 145Q794-20 565-20Q352-20 232.50 128.50Q113 277 113 547Q113 812 233.50 965Q354 1118 563 1118Q786 1118 907 952L918 952L942 1098L1085 1098L1085-18Q1085-254 965.50-373Q846-492 594-492Q354-492 199-422L199-256Q359-342 604-342Q744-342 825.50-260Q907-178 907-33L907 10M614 1241Q473 1241 391.50 1310Q310 1379 301 1516L411 1516Q419 1445 461 1415.50Q503 1386 618 1386Q719 1386 768 1417.50Q817 1449 825 1516L938 1516Q925 1385 839 1313Q753 1241 614 1241Z"  horiz-adv-x="1260" vert-adv-y="2048"  />

      
      <glyph glyph-name="uni0120" unicode="&#x0120;" d="M834 772L1339 772L1339 55Q1223 18 1103-1Q983-20 825-20Q491-20 308 178Q125 376 125 731Q125 960 216 1131Q307 1302 478.50 1392.50Q650 1483 883 1483Q1117 1483 1319 1397L1249 1237Q1056 1321 872 1321Q611 1321 464 1163Q317 1005 317 731Q317 441 458 290Q599 139 868 139Q1015 139 1155 174L1155 608L834 608L834 772M760 1733Q760 1793 790.50 1820Q821 1847 866 1847Q908 1847 939.50 1820Q971 1793 971 1733Q971 1674 939.50 1646Q908 1618 866 1618Q821 1618 790.50 1646Q760 1674 760 1733Z"  horiz-adv-x="1491" vert-adv-y="2048"  />

      
      <glyph glyph-name="uni0121" unicode="&#x0121;" d="M592 127Q758 127 833.50 216.50Q909 306 909 504L909 547Q909 767 833 867Q757 967 588 967Q450 967 374.50 857.50Q299 748 299 545Q299 341 372.50 234Q446 127 592 127M907 10L913 145L905 145Q794-20 565-20Q352-20 232.50 128.50Q113 277 113 547Q113 812 233.50 965Q354 1118 563 1118Q786 1118 907 952L918 952L942 1098L1085 1098L1085-18Q1085-254 965.50-373Q846-492 594-492Q354-492 199-422L199-256Q359-342 604-342Q744-342 825.50-260Q907-178 907-33L907 10M506 1395Q506 1455 536.50 1482Q567 1509 612 1509Q654 1509 685.50 1482Q717 1455 717 1395Q717 1336 685.50 1308Q654 1280 612 1280Q567 1280 536.50 1308Q506 1336 506 1395Z"  horiz-adv-x="1260" vert-adv-y="2048"  />

      
      <glyph glyph-name="uni0122" unicode="&#x0122;" d="M834 772L1339 772L1339 55Q1223 18 1103-1Q983-20 825-20Q491-20 308 178Q125 376 125 731Q125 960 216 1131Q307 1302 478.50 1392.50Q650 1483 883 1483Q1117 1483 1319 1397L1249 1237Q1056 1321 872 1321Q611 1321 464 1163Q317 1005 317 731Q317 441 458 290Q599 139 868 139Q1015 139 1155 174L1155 608L834 608L834 772M660-428Q682-377 709-284Q736-191 744-125L922-125L922-143Q906-206 857.50-299.50Q809-393 758-453L660-453L660-428Z"  horiz-adv-x="1491" vert-adv-y="2048"  />

      
      <glyph glyph-name="uni0123" unicode="&#x0123;" d="M592 127Q758 127 833.50 216.50Q909 306 909 504L909 547Q909 767 833 867Q757 967 588 967Q450 967 374.50 857.50Q299 748 299 545Q299 341 372.50 234Q446 127 592 127M907 10L913 145L905 145Q794-20 565-20Q352-20 232.50 128.50Q113 277 113 547Q113 812 233.50 965Q354 1118 563 1118Q786 1118 907 952L918 952L942 1098L1085 1098L1085-18Q1085-254 965.50-373Q846-492 594-492Q354-492 199-422L199-256Q359-342 604-342Q744-342 825.50-260Q907-178 907-33L907 10M776 1544Q749 1485 723 1392Q697 1299 690 1241L512 1241L512 1260Q527 1316 576.50 1412Q626 1508 676 1569L776 1569L776 1544Z"  horiz-adv-x="1260" vert-adv-y="2048"  />

      
      <glyph glyph-name="uni0124" unicode="&#x0124;" d="M1317 0L1133 0L1133 682L383 682L383 0L199 0L199 1462L383 1462L383 844L1133 844L1133 1462L1317 1462L1317 0M410 1602Q535 1736 586.50 1800Q638 1864 662 1907L846 1907Q898 1806 1102 1602L1102 1579L975 1579Q885 1632 752 1763Q621 1635 533 1579L410 1579L410 1602Z"  horiz-adv-x="1518" vert-adv-y="2048"  />

      
      <glyph glyph-name="uni0125" unicode="&#x0125;" d="M922 0L922 702Q922 836 862.50 901.50Q803 967 676 967Q509 967 431.50 874Q354 781 354 567L354 0L174 0L174 1556L354 1556L354 1100Q354 1010 344 946L356 946Q405 1026 495 1071Q585 1116 698 1116Q898 1116 999 1020.50Q1100 925 1100 715L1100 0L922 0M293 1657Q418 1791 469.50 1855Q521 1919 545 1962L729 1962Q781 1861 985 1657L985 1634L858 1634Q768 1687 635 1818Q504 1690 416 1634L293 1634L293 1657Z"  horiz-adv-x="1266" vert-adv-y="2048"  />

      
      <glyph glyph-name="uni0126" unicode="&#x0126;" d="M199 1219L199 1462L383 1462L383 1219L1133 1219L1133 1462L1317 1462L1317 1219L1516 1219L1516 1071L1317 1071L1317 0L1133 0L1133 682L383 682L383 0L199 0L199 1071L0 1071L0 1219L199 1219M1133 844L1133 1071L383 1071L383 844L1133 844Z"  horiz-adv-x="1518" vert-adv-y="2048"  />

      
      <glyph glyph-name="uni0127" unicode="&#x0127;" d="M922 0L922 662Q922 795 862.50 860.50Q803 926 676 926Q507 926 430.50 833.50Q354 741 354 528L354 0L174 0L174 1237L18 1237L18 1372L174 1372L174 1556L354 1556L354 1372L788 1372L788 1237L354 1237L354 1059Q354 971 344 907L356 907Q409 992 500.50 1034.50Q592 1077 700 1077Q899 1077 999.50 980.50Q1100 884 1100 674L1100 0L922 0Z"  horiz-adv-x="1266" vert-adv-y="2048"  />

      
      <glyph glyph-name="uni0128" unicode="&#x0128;" d="M610 0L82 0L82 106L254 145L254 1315L82 1356L82 1462L610 1462L610 1356L438 1315L438 145L610 106L610 0M500 1581Q457 1581 416 1599.50Q375 1618 335.50 1639.50Q296 1661 259.50 1679.50Q223 1698 189 1698Q140 1698 115 1668.50Q90 1639 76 1579L-28 1579Q-16 1701 42 1771Q100 1841 197 1841Q242 1841 284.50 1822.50Q327 1804 366 1782.50Q405 1761 441 1742.50Q477 1724 509 1724Q557 1724 581.50 1753.50Q606 1783 621 1843L724 1843Q712 1724 654 1652.50Q596 1581 500 1581Z"  horiz-adv-x="694" vert-adv-y="2048"  />

      
      <glyph glyph-name="uni0129" unicode="&#x0129;" d="M354 0L174 0L174 1098L354 1098L354 0M418 1243Q375 1243 334 1261.50Q293 1280 253.50 1301.50Q214 1323 177.50 1341.50Q141 1360 107 1360Q58 1360 33 1330.50Q8 1301-6 1241L-110 1241Q-98 1363-40 1433Q18 1503 115 1503Q160 1503 202.50 1484.50Q245 1466 284 1444.50Q323 1423 359 1404.50Q395 1386 427 1386Q475 1386 499.50 1415.50Q524 1445 539 1505L642 1505Q630 1386 572 1314.50Q514 1243 418 1243Z"  horiz-adv-x="528" vert-adv-y="2048"  />

      
      <glyph glyph-name="uni012A" unicode="&#x012A;" d="M610 0L82 0L82 106L254 145L254 1315L82 1356L82 1462L610 1462L610 1356L438 1315L438 145L610 106L610 0M44 1724L652 1724L652 1579L44 1579L44 1724Z"  horiz-adv-x="694" vert-adv-y="2048"  />

      
      <glyph glyph-name="uni012B" unicode="&#x012B;" d="M354 0L174 0L174 1098L354 1098L354 0M-36 1386L572 1386L572 1241L-36 1241L-36 1386Z"  horiz-adv-x="528" vert-adv-y="2048"  />

      
      <glyph glyph-name="uni012C" unicode="&#x012C;" d="M610 0L82 0L82 106L254 145L254 1315L82 1356L82 1462L610 1462L610 1356L438 1315L438 145L610 106L610 0M343 1579Q202 1579 120.50 1648Q39 1717 30 1854L140 1854Q148 1783 190 1753.50Q232 1724 347 1724Q448 1724 497 1755.50Q546 1787 554 1854L667 1854Q654 1723 568 1651Q482 1579 343 1579Z"  horiz-adv-x="694" vert-adv-y="2048"  />

      
      <glyph glyph-name="uni012D" unicode="&#x012D;" d="M354 0L174 0L174 1098L354 1098L354 0M259 1241Q118 1241 36.50 1310Q-45 1379-54 1516L56 1516Q64 1445 106 1415.50Q148 1386 263 1386Q364 1386 413 1417.50Q462 1449 470 1516L583 1516Q570 1385 484 1313Q398 1241 259 1241Z"  horiz-adv-x="528" vert-adv-y="2048"  />

      
      <glyph glyph-name="uni012E" unicode="&#x012E;" d="M610 0L82 0L82 106L254 145L254 1315L82 1356L82 1462L610 1462L610 1356L438 1315L438 145L610 106L610 0M327-238Q327-284 351.50-307Q376-330 419-330Q463-330 518-317L518-432Q449-451 391-451Q180-451 180-258Q180-119 340 0L467 0Q397-66 362-120.50Q327-175 327-238Z"  horiz-adv-x="694" vert-adv-y="2048"  />

      
      </font>
</defs>
</svg>
